{
.appVersion = "3151";
.formatVersion = 3;
date = "2023-02-01 14:27:53 +0000";
familyName = "AlphabetMagic - Experiment 13";
fontMaster = (
{
customParameters = (
{
name = paramArea;
value = 404;
},
{
name = paramDepth;
value = 16;
}
);
id = m01;
metricValues = (
{
over = 16;
pos = 754;
},
{
over = 16;
pos = 705;
},
{
over = 16;
pos = 444;
},
{
over = -16;
},
{
over = -16;
pos = -318;
},
{
over = -16;
}
);
name = Regular;
userData = {
HTLSManagerMasterRules = {
761e77d718ca4894b3898156c5ea2ce3 = "1.05";
};
};
}
);
glyphs = (
{
glyphname = A;
lastChange = "2023-02-01 16:18:46 +0000";
layers = (
{
layerId = m01;
shapes = (
{
closed = 1;
nodes = (
(438,729,o),
(431,721,o),
(424,707,c),
(424,700,o),
(424,692,o),
(416,692,c),
(416,685,o),
(416,678,o),
(409,670,c),
(409,663,o),
(402,656,o),
(402,656,c),
(402,649,o),
(394,641,o),
(387,620,cs),
(380,605,o),
(380,590,o),
(373,583,c),
(373,576,o),
(365,569,o),
(365,561,c),
(358,554,o),
(358,547,o),
(358,539,c),
(358,539,o),
(343,518,o),
(336,496,cs),
(322,452,o),
(271,350,o),
(256,314,cs),
(249,299,o),
(234,263,o),
(205,219,c),
(191,183,o),
(147,103,o),
(132,81,cs),
(103,52,o),
(67,23,o),
(38,23,cs),
(30,23,l),
(30,1,l),
(67,1,ls),
(103,1,o),
(249,1,o),
(292,1,cs),
(322,1,ls),
(329,1,o),
(329,15,o),
(329,23,c),
(322,30,l),
(271,37,o),
(249,44,o),
(234,59,cs),
(220,74,o),
(220,88,o),
(234,124,cs),
(242,146,o),
(249,154,o),
(256,168,c),
(256,175,o),
(263,183,o),
(263,183,c),
(263,197,l),
(271,205,l),
(402,205,l),
(547,205,l),
(555,205,l),
(562,197,l),
(569,190,l),
(569,190,o),
(569,175,o),
(584,146,c),
(591,139,o),
(591,117,o),
(598,110,c),
(606,88,o),
(606,81,o),
(606,74,cs),
(606,66,o),
(606,59,o),
(598,52,cs),
(584,37,o),
(569,30,o),
(540,23,cs),
(533,23,o),
(533,1,o),
(540,1,c),
(540,1,o),
(555,1,o),
(569,1,cs),
(809,1,l),
(853,1,l),
(853,8,l),
(853,23,l),
(853,23,o),
(838,30,o),
(831,30,cs),
(802,37,o),
(773,52,o),
(751,81,cs),
(737,103,o),
(715,139,o),
(693,183,cs),
(686,197,o),
(678,212,o),
(678,219,c),
(649,285,ls),
(642,306,o),
(635,328,o),
(627,336,c),
(627,336,o),
(627,343,o),
(620,350,c),
(620,357,o),
(613,365,o),
(613,372,c),
(613,372,o),
(613,379,o),
(606,387,c),
(606,394,o),
(606,401,o),
(598,408,c),
(598,408,o),
(598,416,o),
(591,423,c),
(591,430,o),
(591,438,o),
(584,445,c),
(569,474,l),
(569,496,o),
(562,510,o),
(555,518,c),
(540,547,ls),
(533,569,o),
(525,583,o),
(525,590,c),
(504,641,ls),
(482,692,o),
(474,721,o),
(474,729,c),
(453,729,ls)
);
},
{
closed = 1;
nodes = (
(424,561,o),
(431,554,o),
(431,539,c),
(438,525,o),
(453,496,o),
(453,488,cs),
(453,481,o),
(460,474,o),
(460,467,c),
(467,459,o),
(467,452,o),
(467,452,c),
(467,445,o),
(489,394,o),
(489,387,c),
(496,379,o),
(496,372,o),
(496,372,c),
(496,365,o),
(504,350,o),
(511,343,c),
(511,328,o),
(518,314,o),
(525,306,c),
(533,270,o),
(540,256,o),
(540,256,c),
(540,256,o),
(322,256,o),
(300,256,cs),
(292,256,l),
(292,263,o),
(292,270,o),
(314,328,cs),
(351,408,o),
(358,423,o),
(365,452,c),
(373,459,o),
(387,488,o),
(387,496,c),
(409,547,ls),
(424,576,o),
(424,576,o),
(424,569,cs)
);
}
);
width = 883;
}
);
unicode = 65;
},
{
glyphname = B;
lastChange = "2023-02-01 16:15:47 +0000";
layers = (
{
layerId = m01;
shapes = (
{
closed = 1;
nodes = (
(34,720,l),
(34,706,ls),
(34,691,o),
(34,691,o),
(41,691,cs),
(49,691,o),
(78,684,o),
(92,677,cs),
(121,669,o),
(136,640,o),
(143,575,c),
(151,560,o),
(151,538,o),
(151,342,cs),
(151,123,o),
(151,116,o),
(143,80,cs),
(143,73,o),
(136,58,o),
(129,51,cs),
(121,36,o),
(92,29,o),
(70,22,c),
(56,22,o),
(56,22,o),
(56,7,cs),
(56,-8,l),
(92,0,l),
(347,0,l),
(405,-8,o),
(442,0,o),
(485,14,cs),
(529,29,ls),
(587,51,o),
(638,109,o),
(653,153,cs),
(675,218,o),
(675,276,o),
(646,320,cs),
(631,349,o),
(587,378,o),
(544,393,cs),
(522,400,o),
(507,400,o),
(500,400,cs),
(493,400,o),
(485,407,o),
(485,407,c),
(485,407,o),
(493,415,o),
(500,415,c),
(522,429,o),
(558,458,o),
(573,480,cs),
(595,502,o),
(602,524,o),
(609,560,cs),
(616,582,o),
(616,597,o),
(609,611,c),
(595,669,o),
(551,706,o),
(464,720,cs),
(434,720,o),
(427,720,o),
(347,720,cs),
(143,720,l)
);
},
{
closed = 1;
nodes = (
(391,677,o),
(434,662,o),
(456,640,cs),
(471,626,o),
(485,604,o),
(493,582,cs),
(507,531,o),
(493,480,o),
(456,444,c),
(413,415,ls),
(405,407,o),
(362,400,o),
(311,400,cs),
(282,400,o),
(260,400,o),
(260,407,cs),
(260,531,ls),
(260,655,o),
(260,669,o),
(260,677,c),
(347,677,ls)
);
},
{
closed = 1;
nodes = (
(464,342,o),
(493,327,o),
(507,305,cs),
(551,247,o),
(551,145,o),
(507,94,cs),
(493,80,o),
(471,58,o),
(434,51,cs),
(405,43,o),
(354,36,o),
(325,43,cs),
(282,51,o),
(267,65,o),
(260,94,cs),
(260,116,o),
(252,327,o),
(260,349,cs),
(260,356,o),
(260,356,o),
(289,356,cs),
(369,356,ls),
(398,356,o),
(413,356,o),
(420,349,c)
);
}
);
width = 716;
}
);
unicode = 66;
},
{
glyphname = D;
lastChange = "2023-02-01 16:16:12 +0000";
layers = (
{
layerId = m01;
shapes = (
{
closed = 1;
nodes = (
(297,728,o),
(217,728,o),
(158,720,cs),
(93,720,o),
(42,720,o),
(42,720,c),
(42,706,l),
(35,691,l),
(56,691,l),
(71,684,o),
(93,684,o),
(107,677,cs),
(122,669,o),
(136,648,o),
(144,619,cs),
(151,589,o),
(151,553,o),
(151,335,cs),
(151,123,o),
(151,87,o),
(144,73,cs),
(136,43,o),
(115,29,o),
(71,22,cs),
(64,22,o),
(56,22,o),
(56,22,c),
(56,0,ls),
(56,-8,o),
(78,-8,o),
(115,0,cs),
(122,0,o),
(187,0,o),
(267,0,cs),
(420,0,l),
(464,7,o),
(530,14,o),
(559,29,cs),
(581,43,l),
(624,58,o),
(682,102,o),
(712,138,cs),
(726,153,o),
(748,189,o),
(763,204,c),
(792,284,ls),
(799,313,o),
(806,364,o),
(806,393,cs),
(806,487,o),
(784,560,o),
(726,626,cs),
(675,677,o),
(588,713,o),
(486,728,c),
(326,728,ls)
);
},
{
closed = 1;
nodes = (
(479,662,o),
(500,655,o),
(530,640,cs),
(581,619,o),
(610,589,o),
(639,546,cs),
(661,502,o),
(668,480,o),
(682,429,c),
(682,298,l),
(668,233,o),
(646,174,o),
(602,131,cs),
(573,102,o),
(522,73,o),
(471,65,cs),
(442,58,o),
(384,58,o),
(355,65,cs),
(333,73,o),
(311,73,o),
(297,80,cs),
(282,87,o),
(267,109,o),
(267,131,c),
(260,153,o),
(260,204,o),
(260,400,cs),
(260,626,l),
(267,655,o),
(275,662,o),
(311,669,cs),
(333,677,o),
(340,677,o),
(377,677,cs),
(406,677,o),
(420,677,o),
(442,669,cs)
);
}
);
width = 861;
}
);
unicode = 68;
},
{
glyphname = E;
lastChange = "2023-02-01 15:37:28 +0000";
layers = (
{
layerId = m01;
shapes = (
{
closed = 1;
nodes = (
(276,721,l),
(36,721,l),
(36,692,l),
(50,692,ls),
(65,692,o),
(94,685,o),
(101,678,c),
(123,670,o),
(137,649,o),
(145,612,cs),
(145,598,o),
(145,590,o),
(145,481,cs),
(145,110,ls),
(145,74,o),
(137,66,o),
(130,52,cs),
(123,37,o),
(94,30,o),
(65,23,cs),
(50,23,o),
(50,23,o),
(50,15,c),
(50,15,o),
(50,1,o),
(50,-7,c),
(137,1,ls),
(181,1,o),
(472,-7,o),
(589,-7,cs),
(618,-7,l),
(618,1,o),
(625,59,o),
(632,81,cs),
(632,88,o),
(640,103,o),
(640,117,cs),
(640,124,o),
(647,132,o),
(647,139,cs),
(647,161,l),
(640,168,o),
(632,168,o),
(625,161,cs),
(611,146,l),
(596,110,o),
(574,88,o),
(552,81,c),
(523,59,o),
(494,59,o),
(429,52,cs),
(349,52,o),
(305,59,o),
(283,81,c),
(276,81,o),
(268,95,o),
(261,117,c),
(254,234,l),
(254,336,l),
(268,336,l),
(283,343,o),
(465,336,o),
(480,336,cs),
(487,336,o),
(501,328,o),
(509,321,cs),
(516,314,o),
(523,292,o),
(523,263,cs),
(523,241,o),
(523,248,o),
(545,248,cs),
(552,248,l),
(552,365,l),
(552,481,l),
(523,488,l),
(523,467,ls),
(523,438,o),
(509,416,o),
(494,408,cs),
(487,401,o),
(465,401,o),
(414,401,cs),
(363,394,o),
(261,394,o),
(261,401,c),
(261,401,o),
(261,445,o),
(261,547,cs),
(261,649,l),
(268,656,o),
(268,656,o),
(276,656,c),
(290,663,o),
(312,663,o),
(385,663,cs),
(509,663,o),
(531,656,o),
(545,627,c),
(560,612,o),
(567,598,o),
(567,569,cs),
(567,561,o),
(574,554,o),
(574,547,c),
(574,547,o),
(596,547,o),
(596,547,c),
(596,590,ls),
(596,620,o),
(603,656,o),
(603,670,cs),
(603,714,l),
(603,721,l),
(560,721,l),
(509,721,l)
);
}
);
width = 694;
}
);
unicode = 69;
},
{
glyphname = F;
lastChange = "2023-02-01 15:37:28 +0000";
layers = (
{
layerId = m01;
shapes = (
{
closed = 1;
nodes = (
(42,728,l),
(42,721,l),
(42,707,l),
(35,699,l),
(49,699,l),
(71,692,o),
(93,692,o),
(100,685,c),
(122,677,o),
(136,648,o),
(144,605,c),
(144,372,ls),
(144,110,o),
(144,88,o),
(129,66,cs),
(122,51,o),
(100,30,o),
(71,30,cs),
(56,30,l),
(56,30,o),
(49,22,o),
(49,15,cs),
(49,8,o),
(56,8,o),
(56,0,c),
(78,0,ls),
(166,0,o),
(253,8,o),
(362,0,cs),
(377,0,o),
(391,0,o),
(391,8,cs),
(391,15,l),
(391,30,l),
(384,30,o),
(377,30,o),
(377,37,c),
(348,37,l),
(297,51,o),
(275,66,o),
(260,95,c),
(260,124,ls),
(260,153,o),
(253,343,o),
(260,343,cs),
(333,343,ls),
(420,343,o),
(471,350,o),
(479,343,cs),
(493,335,o),
(508,321,o),
(515,299,cs),
(522,255,ls),
(522,248,o),
(544,248,o),
(544,248,c),
(551,255,o),
(551,284,o),
(551,364,cs),
(551,481,l),
(551,481,o),
(551,488,o),
(537,488,cs),
(530,488,o),
(522,488,o),
(522,481,cs),
(522,474,o),
(515,445,o),
(508,437,cs),
(500,423,o),
(493,415,o),
(479,408,c),
(471,408,o),
(362,401,o),
(304,401,cs),
(260,401,l),
(260,510,ls),
(260,612,o),
(260,656,o),
(267,663,c),
(267,670,o),
(275,670,o),
(362,670,cs),
(435,670,o),
(471,670,o),
(493,663,c),
(515,663,o),
(522,656,o),
(530,648,cs),
(551,634,o),
(566,597,o),
(566,561,cs),
(566,554,l),
(595,554,l),
(595,641,l),
(595,728,l),
(588,728,l),
(544,728,l),
(275,728,l)
);
}
);
width = 649;
}
);
unicode = 70;
},
{
glyphname = G;
lastChange = "2023-02-01 16:17:02 +0000";
layers = (
{
layerId = m01;
shapes = (
{
closed = 1;
nodes = (
(363,720,o),
(341,720,o),
(319,713,c),
(319,706,o),
(304,706,o),
(297,706,cs),
(275,699,o),
(246,684,o),
(217,662,cs),
(195,648,o),
(181,640,o),
(159,619,cs),
(115,575,o),
(86,517,o),
(64,451,cs),
(57,415,o),
(57,400,o),
(57,349,cs),
(57,298,o),
(57,284,o),
(64,247,cs),
(79,204,o),
(101,145,o),
(130,116,cs),
(152,94,o),
(152,87,o),
(173,73,cs),
(203,43,o),
(232,29,o),
(275,14,c),
(283,7,o),
(290,7,o),
(297,7,c),
(312,0,o),
(334,-8,o),
(377,-15,c),
(392,-22,o),
(406,-22,o),
(457,-22,cs),
(508,-22,o),
(523,-22,o),
(545,-15,cs),
(596,-8,o),
(639,0,o),
(683,14,cs),
(719,29,l),
(719,36,l),
(719,131,l),
(727,240,ls),
(727,247,o),
(734,262,o),
(734,262,c),
(741,269,o),
(763,284,o),
(785,284,c),
(792,291,l),
(792,298,l),
(792,313,l),
(792,313,o),
(778,313,o),
(763,313,cs),
(617,313,ls),
(552,313,o),
(501,305,o),
(501,305,c),
(494,305,o),
(494,305,o),
(494,298,cs),
(494,284,l),
(494,284,o),
(501,276,o),
(516,276,cs),
(574,269,o),
(603,240,o),
(610,189,cs),
(610,138,o),
(610,94,o),
(603,73,cs),
(596,58,o),
(574,43,o),
(552,43,c),
(537,36,o),
(479,36,o),
(450,43,c),
(414,43,o),
(377,58,o),
(341,80,cs),
(253,123,o),
(195,204,o),
(173,305,c),
(173,335,o),
(166,400,o),
(173,422,c),
(173,458,o),
(181,495,o),
(188,502,c),
(188,502,o),
(188,502,o),
(188,509,c),
(203,531,ls),
(268,626,o),
(334,684,o),
(457,684,cs),
(530,684,o),
(603,662,o),
(639,633,cs),
(668,611,o),
(683,575,o),
(698,517,cs),
(698,509,o),
(705,509,o),
(705,509,c),
(727,509,l),
(734,509,l),
(734,582,l),
(734,684,l),
(734,713,l),
(727,713,o),
(683,720,o),
(668,728,c),
(596,735,o),
(479,735,o),
(421,728,cs)
);
}
);
width = 830;
}
);
unicode = 71;
},
{
glyphname = H;
lastChange = "2023-02-01 15:23:54 +0000";
layers = (
{
layerId = m01;
shapes = (
{
closed = 1;
nodes = (
(167,705,l),
(36,705,l),
(36,698,l),
(36,684,l),
(36,676,l),
(51,669,l),
(87,669,o),
(109,662,o),
(123,647,cs),
(138,625,o),
(145,603,o),
(145,560,cs),
(145,108,ls),
(145,72,o),
(138,57,o),
(123,43,c),
(109,36,o),
(87,28,o),
(80,28,cs),
(72,28,o),
(58,21,o),
(58,21,c),
(51,21,l),
(43,6,l),
(51,-1,l),
(51,-8,o),
(58,-8,o),
(80,-1,c),
(182,-1,ls),
(247,-1,o),
(276,-8,o),
(349,-8,cs),
(378,-8,l),
(378,-1,l),
(378,21,l),
(371,21,o),
(371,21,o),
(364,28,c),
(334,28,o),
(291,43,o),
(276,57,cs),
(262,72,o),
(262,87,o),
(262,225,cs),
(262,334,l),
(669,334,l),
(669,283,ls),
(669,225,o),
(669,130,o),
(662,101,cs),
(662,94,o),
(662,79,o),
(655,72,c),
(648,50,o),
(618,36,o),
(582,28,c),
(567,21,l),
(567,6,l),
(560,-1,o),
(567,-1,o),
(567,-8,c),
(567,-8,o),
(582,-8,o),
(589,-1,c),
(859,-1,l),
(895,-8,o),
(895,-8,o),
(895,14,cs),
(895,21,o),
(895,21,o),
(873,28,cs),
(837,36,o),
(800,50,o),
(793,72,cs),
(786,94,o),
(779,123,o),
(779,341,cs),
(786,582,o),
(786,603,o),
(800,633,cs),
(808,654,o),
(837,676,o),
(880,676,cs),
(895,676,l),
(902,684,o),
(902,705,o),
(895,705,cs),
(851,705,ls),
(815,705,o),
(575,705,o),
(560,705,c),
(560,691,ls),
(560,676,o),
(560,669,o),
(575,669,cs),
(589,669,o),
(611,662,o),
(626,654,c),
(633,654,o),
(648,640,o),
(655,633,c),
(662,582,l),
(669,574,o),
(669,523,o),
(669,472,cs),
(669,385,l),
(662,378,l),
(458,378,l),
(262,378,l),
(262,465,l),
(262,582,l),
(269,625,o),
(276,633,o),
(284,647,c),
(298,662,o),
(320,669,o),
(342,669,cs),
(371,676,o),
(371,676,o),
(371,691,cs),
(371,705,l),
(356,705,l),
(313,705,l)
);
}
);
width = 936;
},
{
associatedMasterId = m01;
layerId = "2584EC77-38BC-474A-92DC-C11669ACE692";
name = artwork;
shapes = (
{
closed = 1;
nodes = (
(873.964,939.155,o),
(870.683,938.531,o),
(868.042,937.633,c),
(867.505,937.45,o),
(866.296,937.058,o),
(865.356,936.761,c),
(862.131,935.743,o),
(858.457,933.92,o),
(854.16,931.204,c),
(850.561,928.929,o),
(848.919,927.625,o),
(845.864,924.611,c),
(839.731,918.563,o),
(835.748,911.364,o),
(833.409,902.1,c),
(832.087,896.864,o),
(831.908,895.144,o),
(831.923,887.817,c),
(831.937,881.011,o),
(832.096,879.346,o),
(833.228,874.146,c),
(834.633,867.688,o),
(838.207,860.39,o),
(842.254,855.713,c),
(844.765,852.811,o),
(845.319,852.252,o),
(847.882,850.036,c),
(852.147,846.346,o),
(855.531,844.355,o),
(862.305,841.55,c),
(863.312,841.133,o),
(864.355,840.699,o),
(864.624,840.587,c),
(866.817,839.668,o),
(870.148,838.846,o),
(875.61,837.876,c),
(878.206,837.415,o),
(879.53,837.352,o),
(887.207,837.324,c),
(894.262,837.298,o),
(896.442,837.372,o),
(898.926,837.719,c),
(905.843,838.687,o),
(912.047,840.085,o),
(917.634,841.935,c),
(920.488,842.88,o),
(921.37,843.277,o),
(922.517,844.135,c),
(923.281,844.707,l),
(923.41,857.839,l),
(923.53,870.041,o),
(923.576,871.127,o),
(924.051,873.169,c),
(924.332,874.377,o),
(924.764,875.641,o),
(925.011,875.977,c),
(926.012,877.338,o),
(928.819,878.685,o),
(931.763,879.217,c),
(933.472,879.526,l),
(933.397,881.23,l),
(933.356,882.167,o),
(933.234,883.023,o),
(933.127,883.132,c),
(933.019,883.24,o),
(931.02,883.208,o),
(928.685,883.06,c),
(926.349,882.911,o),
(917.462,882.734,o),
(908.936,882.666,c),
(900.409,882.597,o),
(893.198,882.493,o),
(892.912,882.435,c),
(892.467,882.345,o),
(892.366,882.096,o),
(892.22,880.729,c),
(892.106,879.669,o),
(892.141,879.017,o),
(892.321,878.8,c),
(892.471,878.62,o),
(893.461,878.345,o),
(894.522,878.19,c),
(903.051,876.943,o),
(906.864,873.344,o),
(907.708,865.746,c),
(908.453,859.039,o),
(908.145,852.845,o),
(906.949,850.449,c),
(905.863,848.276,o),
(903.278,846.478,o),
(899.902,845.549,c),
(897.658,844.932,o),
(890.374,844.925,o),
(886.498,845.536,c),
(880.882,846.422,o),
(875.959,848.013,o),
(870.75,850.626,c),
(858.813,856.615,o),
(850.801,867.849,o),
(848.142,882.324,c),
(847.505,885.791,o),
(847.206,894.749,o),
(847.619,897.949,c),
(848.333,903.478,o),
(849.22,907.693,o),
(849.854,908.569,c),
(849.951,908.704,o),
(850.109,909.143,o),
(850.205,909.546,c),
(850.301,909.949,o),
(850.928,911.377,o),
(851.599,912.72,c),
(858.512,926.57,o),
(870.49,933.594,o),
(887.199,933.594,c),
(897.482,933.594,o),
(906.9,931.135,o),
(911.919,927.141,c),
(915.938,923.943,o),
(918.358,919.145,o),
(920.27,910.583,c),
(920.405,909.977,o),
(920.522,909.912,o),
(921.479,909.912,c),
(922.062,909.912,o),
(923.035,909.98,o),
(923.642,910.063,c),
(924.744,910.214,l),
(924.923,920.378,l),
(925.021,925.968,o),
(925.118,932.126,o),
(925.136,934.061,c),
(925.171,937.581,l),
(924.561,937.763,l),
(923.556,938.064,o),
(918.013,939.167,o),
(915.527,939.561,c),
(906.49,940.993,o),
(889.647,941.365,o),
(882.08,940.298,cs)
);
},
{
closed = 1;
nodes = (
(104,940,o),
(103,939,o),
(102,937,c),
(102,936,o),
(102,935,o),
(101,935,c),
(101,934,o),
(101,933,o),
(100,932,c),
(100,931,o),
(99,930,o),
(99,930,c),
(99,929,o),
(98,928,o),
(97,925,c),
(96,923,o),
(96,921,o),
(95,920,c),
(95,919,o),
(94,918,o),
(94,917,c),
(93,916,o),
(93,915,o),
(93,914,c),
(93,914,o),
(91,911,o),
(90,908,c),
(88,902,o),
(81,888,o),
(79,883,c),
(78,881,o),
(76,876,o),
(72,870,c),
(70,865,o),
(64,854,o),
(62,851,c),
(58,847,o),
(53,844,o),
(49,843,c),
(48,843,l),
(48,841,l),
(48,840,l),
(53,840,l),
(58,840,o),
(78,840,o),
(84,840,c),
(86,840,o),
(88,840,o),
(88,840,c),
(89,840,o),
(89,842,o),
(89,843,c),
(89,843,o),
(88,844,o),
(88,844,c),
(81,845,o),
(78,846,o),
(76,848,c),
(74,850,o),
(74,852,o),
(76,857,c),
(77,860,o),
(78,861,o),
(79,863,c),
(79,864,o),
(80,865,o),
(80,865,c),
(80,865,o),
(80,866,o),
(80,867,c),
(81,868,l),
(99,868,l),
(109,868,o),
(118,868,o),
(119,868,c),
(120,868,l),
(121,867,l),
(121,867,o),
(122,866,o),
(122,866,c),
(122,866,o),
(122,864,o),
(124,860,c),
(125,859,o),
(125,856,o),
(126,855,c),
(127,852,o),
(127,851,o),
(127,850,c),
(127,849,o),
(127,848,o),
(126,847,c),
(124,845,o),
(122,844,o),
(118,843,c),
(117,843,o),
(117,840,o),
(118,840,c),
(118,840,o),
(120,840,o),
(122,840,c),
(126,840,o),
(146,840,o),
(155,840,c),
(161,840,l),
(161,841,l),
(161,842,o),
(161,843,o),
(161,843,c),
(161,843,o),
(159,844,o),
(158,844,c),
(154,845,o),
(150,847,o),
(147,851,c),
(145,854,o),
(142,859,o),
(139,865,c),
(138,867,o),
(137,869,o),
(137,870,c),
(136,872,o),
(135,874,o),
(133,879,c),
(132,882,o),
(131,885,o),
(130,886,c),
(130,886,o),
(130,887,o),
(129,888,c),
(129,889,o),
(128,890,o),
(128,891,c),
(128,891,o),
(128,892,o),
(127,893,c),
(127,894,o),
(127,895,o),
(126,896,c),
(126,896,o),
(126,897,o),
(125,898,c),
(125,899,o),
(125,900,o),
(124,901,c),
(124,901,o),
(123,903,o),
(122,905,c),
(122,908,o),
(121,910,o),
(120,911,c),
(120,911,o),
(119,913,o),
(118,915,c),
(117,918,o),
(116,920,o),
(116,921,c),
(115,923,o),
(114,925,o),
(113,928,c),
(111,935,o),
(109,939,o),
(109,940,c),
(108,940,o),
(108,940,o),
(106,940,cs)
);
},
{
closed = 1;
nodes = (
(387.64,939.595,o),
(377.292,939.506,o),
(368.606,939.488,c),
(359.919,939.469,o),
(352.761,939.371,o),
(352.699,939.27,c),
(352.637,939.169,o),
(352.55,938.21,o),
(352.506,937.138,c),
(352.425,935.189,l),
(354.559,934.885,l),
(357.279,934.496,o),
(360.411,933.698,o),
(361.604,933.089,c),
(363.851,931.943,o),
(365.85,928.718,o),
(366.71,924.854,c),
(367.667,920.548,o),
(367.799,915.707,o),
(367.769,885.986,c),
(367.74,857.412,o),
(367.607,852.286,o),
(366.824,849.681,c),
(365.818,846.332,o),
(362.818,844.408,o),
(357.031,843.402,c),
(356.03,843.228,o),
(355.153,843.027,o),
(355.081,842.955,c),
(354.763,842.637,o),
(354.681,840.083,o),
(354.977,839.726,c),
(355.352,839.274,o),
(358,839.239,o),
(362.549,839.626,c),
(364.387,839.782,o),
(372.738,839.875,o),
(383.545,839.861,c),
(393.414,839.848,o),
(403.082,839.946,o),
(405.029,840.08,c),
(411.252,840.508,o),
(419.769,842.446,o),
(424.438,844.498,c),
(424.707,844.616,o),
(425.939,845.146,o),
(427.176,845.674,c),
(432.965,848.148,o),
(440.504,853.724,o),
(444.974,858.835,c),
(446.787,860.909,o),
(450.186,865.842,o),
(451.619,868.48,c),
(452.519,870.135,o),
(455.277,876.855,o),
(455.999,879.15,c),
(457.099,882.65,o),
(458.252,890.307,o),
(458.252,894.118,c),
(458.252,906.948,o),
(454.672,916.878,o),
(446.877,925.676,c),
(440.064,933.365,o),
(428.335,938.397,o),
(414.478,939.578,c),
(410.122,939.948,o),
(404.405,939.975,o),
(391.602,939.685,cs)
);
},
{
closed = 1;
nodes = (
(203.813,939.087,l),
(203.699,937.298,l),
(203.568,935.249,o),
(203.781,934.816,o),
(204.925,934.811,c),
(206.136,934.804,o),
(210.161,933.902,o),
(212.112,933.2,c),
(216.281,931.698,o),
(218.192,928.097,o),
(219.417,919.434,c),
(219.811,916.651,o),
(219.849,913.775,o),
(219.849,886.841,c),
(219.849,856.713,o),
(219.842,856.432,o),
(218.94,851.44,c),
(218.617,849.656,o),
(217.828,847.797,o),
(216.953,846.762,c),
(215.722,845.305,o),
(212.424,843.822,o),
(209.144,843.25,c),
(207.301,842.929,o),
(207.189,842.771,o),
(207.321,840.682,c),
(207.397,839.478,l),
(212.28,839.6,l),
(219.985,839.792,o),
(241.265,839.742,o),
(247.437,839.517,c),
(255.196,839.233,o),
(260.242,839.83,o),
(265.759,841.684,c),
(268.639,842.652,o),
(268.892,842.76,o),
(272.326,844.47,c),
(280.197,848.391,o),
(286.563,854.908,o),
(288.915,861.45,c),
(291.823,869.543,o),
(291.625,878.019,o),
(288.398,883.537,c),
(285.827,887.935,o),
(279.981,892.198,o),
(274.048,894,c),
(271.202,894.865,o),
(269.479,895.262,o),
(268.442,895.292,c),
(267.047,895.333,o),
(266.047,895.582,o),
(265.936,895.916,c),
(265.883,896.075,o),
(266.799,896.698,o),
(267.991,897.314,c),
(270.618,898.673,o),
(276.05,903.141,o),
(278.219,905.729,c),
(280.784,908.79,o),
(282.269,912.055,o),
(283.209,916.703,c),
(283.823,919.744,o),
(283.815,921.645,o),
(283.177,924.273,c),
(281.247,932.21,o),
(274.853,936.659,o),
(262.573,938.607,c),
(258.526,939.25,o),
(258.129,939.267,o),
(246.582,939.316,c),
(240.07,939.344,o),
(227.782,939.303,o),
(219.277,939.227,cs)
);
},
{
closed = 1;
nodes = (
(592.371,939.214,o),
(577.714,939.115,o),
(559.884,939.078,c),
(527.466,939.012,l),
(527.466,936.976,l),
(527.466,934.938,l),
(528.931,934.761,l),
(531.017,934.508,o),
(534.58,933.605,o),
(536.011,932.966,c),
(538.988,931.636,o),
(540.575,929.177,o),
(541.512,924.438,c),
(542.007,921.938,o),
(542.058,920.692,o),
(542.253,906.372,c),
(542.485,889.433,o),
(542.332,860.772,o),
(541.98,855.225,c),
(541.676,850.415,o),
(541.262,848.618,o),
(540.145,847.254,c),
(538.587,845.354,o),
(535.238,843.88,o),
(531,843.231,c),
(529.256,842.964,o),
(529.024,842.867,o),
(528.894,842.349,c),
(528.684,841.511,o),
(528.956,839.836,o),
(529.369,839.422,c),
(529.741,839.05,o),
(529.307,839.034,o),
(541.138,839.852,c),
(547.251,840.274,o),
(587.04,840.011,o),
(602.6,839.447,c),
(604.849,839.365,o),
(606.689,839.347,o),
(606.689,839.407,c),
(606.689,839.977,o),
(608.366,848.03,o),
(609.119,851.074,c),
(609.401,852.216,o),
(609.861,854.248,o),
(610.141,855.591,c),
(610.421,856.934,o),
(610.743,858.472,o),
(610.856,859.009,c),
(611.244,860.844,o),
(611.137,861.995,o),
(610.541,862.413,c),
(609.746,862.97,o),
(608.709,862.887,o),
(608.082,862.217,c),
(607.786,861.901,o),
(607.007,860.749,o),
(606.351,859.657,c),
(603.808,855.429,o),
(600.781,852.271,o),
(597.689,850.623,c),
(593.505,848.393,o),
(589.755,847.682,o),
(581.157,847.487,c),
(570.272,847.24,o),
(564.467,848.142,o),
(560.986,850.621,c),
(559.925,851.376,o),
(558.69,853.443,o),
(558.066,855.507,c),
(557.537,857.256,o),
(557.521,857.657,o),
(557.433,871.746,c),
(557.342,886.191,l),
(558.639,886.353,l),
(560.855,886.628,o),
(586.396,886.326,o),
(587.819,886.008,c),
(589.435,885.647,o),
(591.11,884.909,o),
(591.589,884.347,c),
(592.942,882.76,o),
(593.867,879.763,o),
(594.173,875.977,c),
(594.388,873.317,o),
(594.424,873.286,o),
(596.742,873.767,c),
(598.022,874.033,l),
(597.988,890.202,l),
(597.954,906.372,l),
(596.14,906.443,l),
(594.326,906.513,l),
(594.023,904.49,l),
(593.348,899.983,o),
(591.965,897.027,o),
(590,895.887,c),
(588.711,895.14,o),
(585.812,894.781,o),
(579.102,894.536,c),
(571.676,894.265,o),
(558.431,894.352,o),
(558.109,894.674,c),
(557.721,895.062,o),
(557.657,901.173,o),
(557.891,915.36,c),
(558.01,922.569,o),
(558.203,928.165,o),
(558.352,928.719,c),
(558.574,929.544,o),
(558.736,929.707,o),
(559.56,929.929,c),
(561.838,930.542,o),
(565.124,930.72,o),
(574.707,930.75,c),
(591.644,930.802,o),
(594.926,930.137,o),
(597.435,926.147,c),
(598.881,923.849,o),
(599.71,921.535,o),
(600.235,918.335,c),
(600.478,916.858,o),
(600.779,915.512,o),
(600.905,915.344,c),
(601.153,915.014,o),
(604.237,914.902,o),
(604.263,915.222,c),
(604.272,915.323,o),
(604.314,918.097,o),
(604.357,921.387,c),
(604.4,924.677,o),
(604.571,929.593,o),
(604.736,932.313,c),
(604.901,935.032,o),
(604.962,937.751,o),
(604.871,938.355,c),
(604.706,939.453,l),
(598.658,939.453,l),
(595.332,939.453,o),
(592.541,939.384,o),
(592.456,939.299,cs)
);
},
{
closed = 1;
nodes = (
(677.734,939.207,l),
(677.734,938.266,l),
(677.734,937.748,o),
(677.666,936.826,o),
(677.583,936.218,c),
(677.431,935.113,l),
(679.231,934.817,l),
(682.131,934.341,o),
(684.849,933.662,o),
(686.12,933.099,c),
(689.448,931.621,o),
(691.134,928.395,o),
(692.015,921.816,c),
(692.395,918.983,o),
(692.42,916.117,o),
(692.303,889.712,c),
(692.146,854.04,o),
(692.024,851.457,o),
(690.362,848.31,c),
(689.093,845.91,o),
(686.145,844.282,o),
(681.641,843.496,c),
(680.768,843.344,o),
(679.917,843.105,o),
(679.749,842.966,c),
(679.564,842.813,o),
(679.443,842.111,o),
(679.443,841.187,c),
(679.443,840.247,o),
(679.561,839.573,o),
(679.749,839.435,c),
(679.925,839.305,o),
(681.238,839.283,o),
(682.861,839.383,c),
(694.626,840.103,o),
(707.3,840.121,o),
(722.438,839.439,c),
(724.485,839.346,o),
(725.816,839.38,o),
(725.906,839.525,c),
(725.987,839.655,o),
(726.126,840.482,o),
(726.216,841.363,c),
(726.38,842.965,l),
(725.556,843.123,l),
(725.103,843.209,o),
(724.292,843.382,o),
(723.755,843.505,c),
(723.218,843.628,o),
(721.735,843.96,o),
(720.459,844.242,c),
(713.391,845.805,o),
(709.538,848.224,o),
(708.282,851.889,c),
(708.105,852.405,o),
(707.865,854.217,o),
(707.749,855.917,c),
(707.471,859.989,o),
(707.457,885.919,o),
(707.734,886.09,c),
(707.851,886.163,o),
(712.448,886.347,o),
(717.947,886.499,c),
(729.881,886.83,o),
(736.563,886.581,o),
(738.481,885.734,c),
(740.489,884.847,o),
(742.087,882.84,o),
(743.03,880.021,c),
(743.367,879.013,o),
(744.121,874.635,o),
(744.136,873.596,c),
(744.141,873.259,o),
(746.976,873.158,o),
(747.469,873.478,c),
(747.67,873.608,o),
(747.753,877.873,o),
(747.772,889.073,c),
(747.786,897.551,o),
(747.87,904.676,o),
(747.958,904.905,c),
(748.185,905.496,o),
(747.646,905.754,o),
(746.175,905.758,c),
(744.505,905.763,o),
(744.141,905.595,o),
(744.139,904.82,c),
(744.135,903.556,o),
(743.142,900.051,o),
(742.383,898.627,c),
(741.439,896.856,o),
(740.047,895.623,o),
(738.414,895.111,c),
(736.703,894.573,o),
(721.88,894.171,o),
(714,894.448,c),
(708.151,894.653,l),
(707.982,895.264,l),
(707.889,895.599,o),
(707.865,901.917,o),
(707.93,909.302,c),
(708.044,922.407,o),
(708.369,929.026,o),
(708.95,930.112,c),
(709.323,930.808,o),
(710.439,930.892,o),
(721.68,931.065,c),
(732.398,931.229,o),
(736.711,931.026,o),
(740.322,930.184,c),
(742.738,929.621,o),
(743.533,929.262,o),
(745.156,928.005,c),
(747.727,926.013,o),
(749.523,921.393,o),
(749.818,916.016,c),
(749.878,914.917,l),
(751.709,914.917,l),
(753.54,914.917,l),
(753.608,926.636,l),
(753.645,933.081,o),
(753.615,938.602,o),
(753.542,938.904,c),
(753.409,939.453,l),
(747.493,939.393,l),
(744.239,939.36,o),
(727.212,939.305,o),
(709.656,939.27,cs)
);
},
{
closed = 1;
nodes = (
(253.04,932.687,o),
(258.769,930.802,o),
(261.737,928.334,c),
(264.411,926.11,o),
(266.288,923.188,o),
(267.086,920.006,c),
(268.859,912.938,o),
(267.032,906.067,o),
(262.04,901.034,c),
(260.674,899.658,o),
(258.066,897.733,o),
(256.411,896.882,c),
(254.59,895.944,o),
(249.106,895.186,o),
(241.943,894.882,c),
(237.803,894.707,o),
(235.444,894.976,o),
(234.92,895.684,c),
(234.676,896.013,o),
(234.616,899.687,o),
(234.637,912.956,c),
(234.664,929.569,o),
(234.75,932.113,o),
(235.301,932.664,c),
(235.898,933.261,o),
(242.066,933.497,o),
(247.192,933.118,cs)
);
},
{
closed = 1;
nodes = (
(413.441,931.197,o),
(416.018,930.423,o),
(420.34,928.314,c),
(426.556,925.281,o),
(431.37,920.791,o),
(435.038,914.608,c),
(438.162,909.342,o),
(439.207,906.375,o),
(440.603,898.804,c),
(441.127,895.963,o),
(441.203,883.974,o),
(440.716,880.981,c),
(439.2,871.674,o),
(435.682,864.048,o),
(430.313,858.424,c),
(425.664,853.556,o),
(419.476,850.429,o),
(411.815,849.077,c),
(407.722,848.354,o),
(399.583,848.306,o),
(395.752,848.982,c),
(392.516,849.552,o),
(389.631,850.406,o),
(388.294,851.19,c),
(386.206,852.414,o),
(384.297,855.244,o),
(383.595,858.154,c),
(382.896,861.052,o),
(382.772,867.551,o),
(382.886,895.264,c),
(382.959,913.191,o),
(383.097,924.05,o),
(383.268,925.537,c),
(383.806,930.2,o),
(385.042,931.424,o),
(390.137,932.342,c),
(392.585,932.783,o),
(393.678,932.836,o),
(398.682,932.755,c),
(402.958,932.686,o),
(405.212,932.534,o),
(407.533,932.157,cs)
);
},
{
closed = 1;
nodes = (
(102.388,917.049,o),
(102.932,915.593,o),
(103.387,914.313,c),
(104.368,911.56,o),
(105.85,907.646,o),
(106.303,906.616,c),
(106.48,906.213,o),
(106.928,905.06,o),
(107.297,904.053,c),
(107.666,903.046,o),
(108.064,902.002,o),
(108.181,901.733,c),
(108.403,901.225,o),
(110.903,894.402,o),
(111.49,892.7,c),
(111.676,892.163,o),
(111.985,891.339,o),
(112.177,890.869,c),
(112.37,890.399,o),
(113.098,888.477,o),
(113.795,886.597,c),
(114.493,884.717,o),
(115.275,882.629,o),
(115.533,881.958,c),
(117.286,877.398,o),
(118.104,875.021,o),
(117.967,874.884,c),
(117.78,874.698,o),
(87.58,874.727,o),
(85.345,874.915,c),
(83.773,875.048,o),
(83.479,875.14,o),
(83.577,875.465,c),
(83.716,875.924,o),
(84.011,876.634,o),
(87.343,884.521,c),
(92.111,895.809,o),
(92.841,897.569,o),
(94.485,901.733,c),
(94.921,902.838,o),
(96.521,906.684,o),
(96.924,907.593,c),
(97.927,909.858,o),
(99.148,912.878,o),
(99.986,915.161,c),
(101.362,918.913,o),
(101.532,919.098,o),
(102.18,917.548,cs)
);
},
{
closed = 1;
nodes = (
(263.471,886.822,o),
(266.784,884.968,o),
(269.272,881.613,c),
(275.222,873.586,o),
(275.293,860.167,o),
(269.423,852.962,c),
(267.449,850.538,o),
(263.615,848.243,o),
(259.399,846.963,c),
(255.055,845.643,o),
(247.58,845.26,o),
(243.53,846.149,c),
(238.362,847.284,o),
(236.206,849.116,o),
(235.172,853.251,c),
(234.574,855.644,o),
(234.221,885.458,o),
(234.76,888.117,c),
(234.868,888.653,o),
(234.941,888.662,o),
(239.444,888.747,c),
(241.96,888.794,o),
(246.545,888.812,o),
(249.634,888.788,c),
(254.374,888.75,o),
(255.592,888.663,o),
(257.446,888.23,cs)
);
},
{
closed = 1;
nodes = (
(708.61,753.334,o),
(702.922,751.934,o),
(697.266,749.372,c),
(687.407,744.906,o),
(678.618,736.269,o),
(673.568,726.082,c),
(669.525,717.927,o),
(667.878,711.431,o),
(667.564,702.393,c),
(667.324,695.509,o),
(668.738,686.941,o),
(671.008,681.519,c),
(671.977,679.206,o),
(672.201,678.722,o),
(673.268,676.636,c),
(675.917,671.457,o),
(679.746,666.769,o),
(684.397,663.008,c),
(691.359,657.378,o),
(699.228,654.29,o),
(711.06,652.546,c),
(713.961,652.118,o),
(723.917,652.119,o),
(727.295,652.547,c),
(731.326,653.058,o),
(737.813,654.755,o),
(740.723,656.06,c),
(747.6,659.142,o),
(752.653,662.498,o),
(757.575,667.251,c),
(761.255,670.805,o),
(765.641,676.941,o),
(768.196,682.111,c),
(771.532,688.862,o),
(773.176,695.333,o),
(773.813,704.224,c),
(773.98,706.553,o),
(773.609,713.73,o),
(773.171,716.644,c),
(772.037,724.188,o),
(768.666,731.828,o),
(763.462,738.647,c),
(758.353,745.344,o),
(749.539,750.637,o),
(739.502,753.037,c),
(734.501,754.233,o),
(732.46,754.45,o),
(725.586,754.517,c),
(721.893,754.553,o),
(718.488,754.536,o),
(718.018,754.479,cs)
);
},
{
closed = 1;
nodes = (
(861.518,752.563,o),
(853.309,752.397,o),
(843.192,752.484,c),
(831.769,752.581,l),
(831.839,750.619,l),
(831.909,748.657,l),
(833.618,748.353,l),
(838.841,747.423,o),
(841.473,746.618,o),
(842.873,745.52,c),
(845.147,743.736,o),
(846.605,740.219,o),
(847.344,734.741,c),
(847.732,731.857,o),
(847.771,728.768,o),
(847.765,700.928,c),
(847.76,669.216,o),
(847.731,668.224,o),
(846.761,665.2,c),
(845.838,662.325,o),
(842.929,660.543,o),
(837.322,659.419,c),
(835.964,659.147,o),
(834.761,658.833,o),
(834.65,658.722,c),
(834.539,658.611,o),
(834.481,657.817,o),
(834.521,656.958,c),
(834.595,655.396,l),
(838.745,655.518,l),
(849.845,655.844,o),
(874.656,655.598,o),
(879.571,655.113,c),
(881.055,654.967,o),
(881.096,654.979,o),
(881.341,655.623,c),
(881.479,655.985,o),
(881.592,656.877,o),
(881.592,657.604,c),
(881.592,658.777,o),
(881.53,658.94,o),
(881.042,659.046,c),
(880.74,659.112,o),
(879.094,659.447,o),
(877.384,659.79,c),
(869.422,661.385,o),
(865.181,663.792,o),
(864.137,667.307,c),
(863.2,670.464,o),
(863.158,672.033,o),
(863.187,703.369,c),
(863.215,734.995,o),
(863.444,744.045,o),
(864.25,745.348,c),
(864.632,745.967,o),
(867.484,746.374,o),
(872.385,746.511,c),
(880.742,746.743,o),
(886.185,745.967,o),
(891.552,743.779,c),
(894.477,742.587,o),
(895.978,741.623,o),
(898.329,739.429,c),
(901.004,736.933,o),
(902.123,735.242,o),
(904.18,730.591,c),
(904.632,729.571,o),
(905.274,725.031,o),
(905.272,722.869,c),
(905.271,720.835,o),
(904.752,717.336,o),
(904.154,715.332,c),
(902.698,710.45,o),
(898.565,705.243,o),
(894.446,703.101,c),
(893.62,702.671,o),
(892.78,702.23,o),
(892.578,702.12,c),
(890.443,700.96,o),
(887.173,700.175,o),
(881.47,699.454,c),
(876.075,698.772,o),
(873.095,698.872,o),
(870.883,699.808,c),
(870.029,700.17,o),
(869.277,700.413,o),
(869.212,700.348,c),
(868.849,699.985,o),
(869.579,698.554,o),
(870.728,697.377,c),
(872.174,695.895,o),
(873.376,695.284,o),
(876.532,694.426,c),
(880.955,693.222,o),
(886.124,693.191,o),
(890.66,694.341,c),
(892.922,694.914,o),
(897.292,696.353,o),
(898.804,697.022,c),
(901.723,698.314,o),
(902.366,698.631,o),
(903.931,699.548,c),
(907.315,701.532,o),
(909.839,703.491,o),
(912.598,706.274,c),
(918.791,712.522,o),
(921.377,718.185,o),
(921.794,726.411,c),
(922.045,731.359,o),
(921.048,735.905,o),
(918.878,739.708,c),
(917.528,742.075,o),
(913.455,746.033,o),
(910.86,747.501,c),
(905.348,750.619,o),
(897.67,752.614,o),
(889.038,753.171,c),
(885.147,753.423,o),
(883.66,753.422,o),
(877.075,753.166,cs)
);
},
{
closed = 1;
nodes = (
(79.242,752.577,o),
(70.039,752.526,o),
(60.604,752.559,c),
(43.449,752.617,l),
(43.317,752.092,l),
(43.245,751.803,o),
(43.219,750.919,o),
(43.26,750.127,c),
(43.335,748.688,l),
(45.288,748.369,l),
(50.433,747.528,o),
(53.017,746.535,o),
(54.637,744.777,c),
(56.853,742.373,o),
(57.767,739.345,o),
(58.107,733.276,c),
(58.401,728.037,o),
(58.411,675.901,o),
(58.119,671.132,c),
(57.806,666.025,o),
(56.986,664.019,o),
(54.516,662.319,c),
(53.08,661.332,o),
(50.338,660.226,o),
(48.502,659.896,c),
(47.674,659.746,o),
(46.448,659.496,o),
(45.776,659.34,c),
(44.556,659.055,l),
(44.493,657.469,l),
(44.458,656.597,o),
(44.519,655.748,o),
(44.627,655.582,c),
(44.782,655.345,o),
(45.746,655.333,o),
(49.085,655.528,c),
(51.428,655.665,o),
(57.794,655.819,o),
(63.232,655.871,c),
(72.368,655.957,o),
(75.821,655.883,o),
(85.838,655.384,c),
(89.524,655.201,l),
(89.68,655.786,l),
(89.949,656.792,o),
(89.861,658.862,o),
(89.539,659.116,c),
(89.371,659.249,o),
(88.625,659.425,o),
(87.881,659.509,c),
(83.523,659.997,o),
(78.326,662,o),
(76.339,663.959,c),
(74.131,666.137,o),
(73.97,667.637,o),
(73.904,686.768,c),
(73.853,701.782,l),
(101.807,701.782,l),
(129.761,701.782,l),
(129.848,694.702,l),
(129.937,687.469,o),
(129.549,673.784,o),
(129.141,669.758,c),
(129.016,668.527,o),
(128.693,666.928,o),
(128.423,666.206,c),
(127.257,663.09,o),
(123.229,660.556,o),
(118.042,659.676,c),
(115.601,659.262,l),
(115.53,657.42,l),
(115.479,656.083,o),
(115.545,655.548,o),
(115.774,655.47,c),
(115.947,655.411,o),
(117.517,655.469,o),
(119.263,655.599,c),
(124.239,655.969,o),
(150.677,655.941,o),
(155.996,655.56,c),
(161.24,655.185,o),
(161.133,655.144,o),
(161.133,657.509,c),
(161.133,659.189,o),
(161.012,659.287,o),
(158.435,659.687,c),
(152.748,660.569,o),
(148.385,662.929,o),
(147.014,665.867,c),
(145.633,668.826,o),
(145.482,672.52,o),
(145.492,703.315,c),
(145.501,735.678,o),
(145.696,739.318,o),
(147.584,742.554,c),
(149.323,745.532,o),
(153.058,747.56,o),
(158.618,748.544,c),
(160.045,748.796,o),
(161.303,749.145,o),
(161.414,749.318,c),
(161.743,749.837,o),
(161.663,752.619,o),
(161.316,752.736,c),
(161.148,752.792,o),
(158.264,752.742,o),
(154.907,752.625,c),
(149.572,752.437,o),
(116.665,752.526,o),
(115.356,752.731,c),
(114.913,752.801,o),
(114.857,752.638,o),
(114.746,750.977,c),
(114.594,748.691,o),
(114.805,748.427,o),
(116.967,748.206,c),
(118.821,748.015,o),
(122.469,747.064,o),
(124.05,746.359,c),
(125.307,745.799,o),
(126.916,744.185,o),
(127.64,742.761,c),
(128.348,741.367,o),
(129.112,738.429,o),
(129.41,735.953,c),
(129.555,734.749,o),
(129.733,728.086,o),
(129.806,721.147,c),
(129.938,708.529,l),
(129.117,708.398,l),
(128.665,708.326,o),
(116.074,708.232,o),
(101.135,708.19,c),
(73.975,708.112,l),
(73.972,719.84,l),
(73.97,730.102,o),
(74.034,732.162,o),
(74.483,736.328,c),
(75.095,741.994,o),
(75.537,743.281,o),
(77.471,745.02,c),
(79.142,746.521,o),
(82.217,747.948,o),
(84.751,748.396,c),
(89.04,749.155,o),
(88.933,749.081,o),
(88.966,751.291,c),
(88.989,752.808,l),
(86.67,752.826,l),
(85.394,752.835,o),
(82.867,752.766,o),
(81.055,752.672,cs)
);
},
{
closed = 1;
nodes = (
(473.043,752.747,o),
(466.601,752.687,o),
(458.793,752.68,c),
(450.985,752.672,o),
(444.541,752.575,o),
(444.472,752.464,c),
(444.403,752.353,o),
(443.961,750.989,o),
(443.489,749.434,c),
(442.738,746.953,o),
(441.299,743.07,o),
(440.307,740.845,c),
(440.128,740.442,o),
(439.379,738.739,o),
(438.644,737.061,c),
(437.284,733.958,o),
(436.51,732.267,o),
(434.452,727.905,c),
(433.818,726.562,o),
(432.828,724.42,o),
(432.251,723.145,c),
(431.674,721.869,o),
(430.312,718.971,o),
(429.224,716.705,c),
(428.136,714.439,o),
(427.246,712.557,o),
(427.246,712.522,c),
(427.246,712.488,o),
(425.697,709.288,o),
(423.803,705.412,c),
(421.909,701.536,o),
(420.052,697.705,o),
(419.677,696.899,c),
(419.301,696.094,o),
(417.49,692.358,o),
(415.651,688.599,c),
(413.813,684.839,o),
(411.981,681.076,o),
(411.581,680.237,c),
(411.181,679.397,o),
(410.713,678.711,o),
(410.541,678.711,c),
(410.369,678.711,o),
(409.863,679.508,o),
(409.416,680.481,c),
(408.97,681.454,o),
(407.897,683.734,o),
(407.032,685.547,c),
(406.168,687.36,o),
(405.102,689.612,o),
(404.664,690.552,c),
(403.259,693.567,o),
(401.863,696.51,o),
(399.882,700.633,c),
(398.819,702.847,o),
(397.949,704.688,o),
(397.949,704.723,c),
(397.949,704.76,o),
(397.471,705.815,o),
(396.886,707.07,c),
(396.302,708.324,o),
(395.299,710.559,o),
(394.658,712.036,c),
(394.018,713.513,o),
(393.113,715.546,o),
(392.648,716.553,c),
(392.183,717.56,o),
(391.14,719.922,o),
(390.331,721.802,c),
(389.521,723.682,o),
(388.542,725.914,o),
(388.155,726.763,c),
(387.768,727.611,o),
(387.451,728.35,o),
(387.451,728.405,c),
(387.451,728.484,o),
(384.448,735.472,o),
(382.944,738.892,c),
(381.575,742.005,o),
(380.845,743.754,o),
(379.602,746.903,c),
(378.816,748.892,o),
(378.174,750.633,o),
(378.174,750.772,c),
(378.174,750.911,o),
(378.01,751.371,o),
(377.809,751.794,c),
(377.444,752.563,l),
(361.878,752.563,l),
(346.313,752.563,l),
(346.242,750.684,l),
(346.171,748.805,l),
(347.097,748.661,l),
(351.227,748.016,o),
(354.61,747.131,o),
(356.667,746.158,c),
(359.105,745.005,o),
(361.826,741.696,o),
(362.552,739.004,c),
(363.066,737.091,o),
(362.864,731.963,o),
(361.955,723.877,c),
(361.479,719.647,o),
(360.925,714.703,o),
(360.723,712.891,c),
(360.521,711.078,o),
(360.247,708.826,o),
(360.115,707.886,c),
(359.983,706.946,o),
(359.648,704.419,o),
(359.369,702.271,c),
(358.545,695.911,o),
(356.722,683.261,o),
(356.062,679.321,c),
(354.081,667.506,o),
(352.264,664.129,o),
(346.339,661.254,c),
(344.818,660.516,o),
(342.951,659.811,o),
(342.086,659.646,c),
(339.915,659.235,o),
(339.599,658.91,o),
(339.551,657.046,c),
(339.53,656.209,o),
(339.578,655.458,o),
(339.658,655.378,c),
(339.738,655.297,o),
(343.96,655.37,o),
(349.04,655.539,c),
(356.679,655.793,o),
(359.86,655.788,o),
(367.432,655.509,c),
(372.467,655.324,o),
(377.576,655.168,o),
(378.784,655.162,c),
(380.981,655.151,l),
(381.053,656.922,l),
(381.138,659.018,o),
(381.312,658.881,o),
(377.441,659.776,c),
(374.39,660.481,o),
(372.373,661.034,o),
(371.704,661.347,c),
(371.436,661.473,o),
(370.48,661.908,o),
(369.58,662.313,c),
(367.77,663.127,o),
(366.074,664.655,o),
(365.4,666.078,c),
(364.031,668.969,o),
(364.059,672.475,o),
(365.604,691.65,c),
(366.516,702.963,o),
(366.614,703.921,o),
(368.047,715.454,c),
(368.264,717.2,o),
(368.648,720.386,o),
(368.901,722.534,c),
(369.447,727.176,o),
(369.863,730.221,o),
(370.013,730.679,c),
(370.192,731.221,o),
(370.732,730.605,o),
(371.219,729.306,c),
(371.751,727.886,o),
(373.488,724.035,o),
(375.427,719.971,c),
(376.229,718.292,o),
(377.233,716.095,o),
(377.659,715.088,c),
(378.085,714.081,o),
(378.586,712.927,o),
(378.773,712.524,c),
(378.96,712.122,o),
(379.554,710.748,o),
(380.092,709.473,c),
(380.63,708.197,o),
(381.641,705.835,o),
(382.338,704.224,c),
(383.034,702.612,o),
(383.978,700.36,o),
(384.435,699.219,c),
(384.892,698.077,o),
(385.366,696.924,o),
(385.49,696.655,c),
(385.613,696.387,o),
(386.058,695.343,o),
(386.479,694.336,c),
(386.9,693.329,o),
(387.401,692.148,o),
(387.592,691.711,c),
(387.783,691.275,o),
(388.095,690.561,o),
(388.286,690.125,c),
(388.476,689.688,o),
(389.48,687.408,o),
(390.516,685.059,c),
(392.511,680.534,o),
(392.914,679.584,o),
(395.386,673.584,c),
(397.675,668.027,o),
(398.297,666.557,o),
(399.105,664.795,c),
(400.192,662.428,o),
(401.477,659.083,o),
(402.227,656.673,c),
(402.593,655.496,o),
(402.961,654.498,o),
(403.045,654.455,c),
(403.129,654.412,o),
(404.234,654.456,o),
(405.5,654.552,c),
(408.105,654.75,o),
(408.211,654.824,o),
(408.799,656.847,c),
(409,657.536,o),
(409.646,659.084,o),
(410.235,660.288,c),
(411.359,662.582,o),
(412.842,665.887,o),
(412.842,666.1,c),
(412.842,666.26,o),
(414.071,668.919,o),
(416.109,673.167,c),
(416.998,675.02,o),
(417.725,676.575,o),
(417.725,676.624,c),
(417.725,676.733,o),
(419.725,680.987,o),
(421.691,685.059,c),
(423.522,688.852,o),
(427.49,697.284,o),
(427.49,697.383,c),
(427.49,697.424,o),
(428.246,699.034,o),
(429.171,700.962,c),
(430.898,704.565,o),
(435.622,714.65,o),
(436.702,717.041,c),
(437.468,718.737,o),
(437.764,719.411,o),
(438.735,721.68,c),
(439.167,722.687,o),
(439.847,724.225,o),
(440.247,725.098,c),
(441.893,728.689,o),
(442.105,729.198,o),
(442.639,730.835,c),
(443.186,732.512,o),
(443.512,733.155,o),
(443.816,733.154,c),
(443.901,733.154,o),
(443.978,728.897,o),
(443.989,723.694,c),
(443.999,718.49,o),
(444.136,709.253,o),
(444.294,703.166,c),
(444.451,697.078,o),
(444.58,687.103,o),
(444.58,680.997,c),
(444.58,668.99,o),
(444.453,667.521,o),
(443.234,665.397,c),
(441.765,662.839,o),
(438.584,660.894,o),
(434.013,659.759,c),
(432.641,659.418,o),
(431.052,659.024,o),
(430.481,658.884,c),
(429.443,658.628,l),
(429.443,656.793,l),
(429.443,654.958,l),
(431.213,655.11,l),
(439.394,655.812,o),
(463.708,655.892,o),
(472.832,655.247,c),
(475.278,655.073,o),
(477.35,655.003,o),
(477.436,655.089,c),
(477.522,655.176,o),
(477.65,655.955,o),
(477.719,656.821,c),
(477.837,658.281,o),
(477.804,658.421,o),
(477.265,658.76,c),
(476.946,658.961,o),
(476.245,659.197,o),
(475.708,659.286,c),
(473.705,659.616,o),
(469.786,660.975,o),
(467.775,662.036,c),
(463.064,664.522,o),
(461.964,666.565,o),
(461.174,674.297,c),
(459.472,690.966,o),
(458.315,731.818,o),
(459.362,738.281,c),
(460.059,742.584,o),
(461.475,744.498,o),
(465.385,746.423,c),
(467.939,747.68,o),
(470.356,748.409,o),
(472.817,748.665,c),
(473.735,748.76,o),
(474.615,748.94,o),
(474.77,749.064,c),
(475.204,749.41,o),
(475.454,752.134,o),
(475.093,752.57,c),
(474.815,752.904,o),
(473.375,753.079,o),
(473.108,752.812,cs)
);
},
{
closed = 1;
nodes = (
(511.245,752.512,o),
(511.107,751.632,o),
(511.042,750.724,c),
(510.9,748.74,o),
(510.912,748.731,o),
(513.916,748.3,c),
(516.665,747.906,o),
(520.794,746.518,o),
(522.455,745.428,c),
(525.585,743.374,o),
(527.28,740.909,o),
(527.817,737.628,c),
(528.823,731.477,o),
(528.516,708.247,o),
(527.101,683.472,c),
(526.364,670.565,o),
(525.533,666.576,o),
(523,663.773,c),
(520.981,661.537,o),
(518.301,660.413,o),
(512.287,659.28,c),
(511.57,659.145,o),
(511.131,657.767,o),
(511.346,656.328,c),
(511.512,655.222,l),
(517.902,655.431,l),
(526.668,655.717,o),
(542.784,655.63,o),
(548.781,655.263,c),
(552.42,655.04,o),
(553.811,655.032,o),
(554.01,655.231,c),
(554.159,655.38,o),
(554.291,656.243,o),
(554.302,657.148,c),
(554.324,659.054,o),
(554.819,658.739,o),
(550.049,659.859,c),
(548.37,660.253,o),
(546.063,660.982,o),
(544.922,661.479,c),
(538.27,664.376,o),
(536.957,667.282,o),
(536.147,680.908,c),
(535.864,685.682,o),
(535.029,730.911,o),
(535.22,731.103,c),
(535.484,731.366,o),
(536.303,730.595,o),
(538.94,727.6,c),
(540.417,725.922,o),
(542.12,723.989,o),
(542.725,723.303,c),
(543.329,722.617,o),
(544.923,720.845,o),
(546.266,719.365,c),
(547.61,717.885,o),
(549.311,715.961,o),
(550.046,715.088,c),
(550.781,714.215,o),
(552.444,712.292,o),
(553.74,710.815,c),
(555.036,709.338,o),
(557.945,705.988,o),
(560.203,703.369,c),
(562.461,700.751,o),
(564.369,698.553,o),
(564.442,698.486,c),
(564.515,698.419,o),
(565.344,697.486,o),
(566.284,696.413,c),
(567.224,695.339,o),
(570.19,692.058,o),
(572.876,689.121,c),
(575.562,686.183,o),
(578.901,682.502,o),
(580.298,680.94,c),
(581.695,679.378,o),
(584.441,676.398,o),
(586.402,674.316,c),
(588.363,672.235,o),
(590.461,669.98,o),
(591.065,669.306,c),
(592.25,667.983,o),
(596.448,663.388,o),
(598.645,661.012,c),
(599.39,660.206,o),
(600.763,658.67,o),
(601.697,657.599,c),
(602.63,656.528,o),
(603.955,655.069,o),
(604.641,654.356,c),
(605.328,653.643,o),
(606.094,652.678,o),
(606.346,652.212,c),
(606.973,651.046,o),
(607.464,650.966,o),
(609.085,651.766,c),
(610.33,652.381,o),
(610.695,652.445,o),
(612.61,652.392,c),
(614.746,652.333,l),
(614.763,653.254,l),
(614.773,653.76,o),
(614.806,666.589,o),
(614.837,681.763,c),
(614.895,709.536,o),
(614.987,713.28,o),
(615.972,728.149,c),
(616.408,734.735,o),
(617.267,738.981,o),
(618.723,741.76,c),
(620.338,744.84,o),
(624.474,747.53,o),
(629.162,748.548,c),
(630.431,748.824,o),
(631.624,749.201,o),
(631.811,749.387,c),
(632.026,749.599,o),
(632.162,750.297,o),
(632.178,751.266,c),
(632.202,752.808,l),
(630.981,752.779,l),
(629.222,752.739,o),
(590.281,752.693,o),
(589.844,752.731,c),
(589.642,752.748,o),
(589.175,752.745,o),
(588.806,752.724,c),
(588.135,752.686,l),
(588.135,750.61,l),
(588.135,749.469,o),
(588.217,748.535,o),
(588.318,748.534,c),
(590.229,748.524,o),
(596.741,746.784,o),
(598.904,745.705,c),
(602.042,744.139,o),
(604.134,741.018,o),
(604.962,736.665,c),
(605.774,732.397,o),
(606.336,717.146,o),
(606.602,692.2,c),
(606.741,679.109,o),
(606.714,676.514,o),
(606.439,676.514,c),
(605.939,676.514,o),
(598.17,684.497,o),
(592.422,690.918,c),
(587.999,695.86,o),
(587.641,696.252,o),
(583.618,700.57,c),
(581.738,702.588,o),
(579.212,705.334,o),
(578.004,706.673,c),
(576.797,708.011,o),
(575.146,709.821,o),
(574.337,710.693,c),
(572.388,712.793,o),
(570.968,714.39,o),
(569.336,716.312,c),
(568.597,717.182,o),
(567.441,718.499,o),
(566.765,719.238,c),
(566.09,719.977,o),
(564.823,721.405,o),
(563.949,722.412,c),
(563.076,723.419,o),
(559.78,727.155,o),
(556.625,730.713,c),
(543.899,745.062,o),
(540.847,748.596,o),
(538.869,751.274,c),
(537.839,752.668,l),
(525.819,752.676,l),
(519.207,752.681,o),
(513.289,752.752,o),
(512.667,752.834,c),
(511.888,752.938,o),
(511.479,752.89,o),
(511.349,752.68,cs)
);
},
{
closed = 1;
nodes = (
(731.264,745.767,o),
(735.005,744.349,o),
(738.154,742.375,c),
(741.328,740.384,o),
(745.179,736.624,o),
(747.731,733.022,c),
(748.712,731.639,o),
(751.465,726.958,o),
(751.465,726.675,c),
(751.465,726.637,o),
(751.833,725.8,o),
(752.283,724.814,c),
(755.447,717.883,o),
(756.853,709.139,o),
(756.499,698.608,c),
(756.282,692.195,o),
(755.653,688.478,o),
(753.903,683.281,c),
(752.142,678.05,o),
(750.405,674.877,o),
(747.058,670.776,c),
(744.773,667.976,o),
(741.794,665.45,o),
(738.647,663.644,c),
(735.707,661.957,o),
(734.175,661.396,o),
(730.164,660.536,c),
(722.329,658.856,o),
(713.444,659.833,o),
(706.622,663.124,c),
(697.899,667.332,o),
(691.314,675.271,o),
(687.523,686.149,c),
(685.585,691.711,o),
(684.678,696.755,o),
(684.425,703.369,c),
(684.164,710.2,o),
(685.557,719.054,o),
(687.762,724.576,c),
(689.163,728.084,o),
(692.439,733.578,o),
(694.26,735.474,c),
(694.646,735.876,o),
(695.673,737.018,o),
(696.541,738.011,c),
(703.32,745.762,o),
(715.041,749.149,o),
(726.685,746.722,cs)
);
},
{
closed = 1;
nodes = (
(699.906,573.059,o),
(698.436,572.433,o),
(693.882,570.193,c),
(691.496,569.02,o),
(689.593,567.927,o),
(689.363,567.598,c),
(688.863,566.885,o),
(688.855,564.986,o),
(689.349,564.331,c),
(689.551,564.063,o),
(690.399,563.507,o),
(691.233,563.096,c),
(692.507,562.469,o),
(692.807,562.196,o),
(693.115,561.387,c),
(693.435,560.546,o),
(693.486,555.064,o),
(693.515,517.988,c),
(693.546,477.738,o),
(693.622,471.464,o),
(694.083,470.717,c),
(694.393,470.217,o),
(697.19,470.487,o),
(698.44,471.138,c),
(699.792,471.843,o),
(700.386,471.823,o),
(703.704,470.956,c),
(709.501,469.44,o),
(711.759,469.154,o),
(718.018,469.143,c),
(724.155,469.132,o),
(724.874,469.234,o),
(730.591,470.927,c),
(736.262,472.606,o),
(743.449,477.831,o),
(747.914,483.521,c),
(753.567,490.726,o),
(756.106,497.872,o),
(756.102,506.563,c),
(756.096,515.595,o),
(754.408,521.061,o),
(749.997,526.327,c),
(744.339,533.081,o),
(736.232,536.076,o),
(726.8,534.898,c),
(723.332,534.464,o),
(717.677,532.673,o),
(714.111,530.879,c),
(712.244,529.938,o),
(708.275,527.361,o),
(707.795,526.775,c),
(707.611,526.551,o),
(707.308,526.367,o),
(707.124,526.367,c),
(706.708,526.367,o),
(706.7,527.569,o),
(707.034,539.917,c),
(707.393,553.167,o),
(708.193,564.695,o),
(709.119,569.946,c),
(709.541,572.338,o),
(709.558,573.51,o),
(709.19,574.74,c),
(708.928,575.615,o),
(708.844,575.682,o),
(708.03,575.66,c),
(707.548,575.647,o),
(705.835,575.167,o),
(704.224,574.594,cs)
);
},
{
closed = 1;
nodes = (
(900.69,574.102,o),
(899.316,573.614,o),
(899.048,573.487,c),
(898.779,573.361,o),
(897.736,572.935,o),
(896.729,572.542,c),
(894.23,571.566,o),
(887.024,568.196,o),
(886.045,567.545,c),
(885.243,567.012,o),
(884.77,565.951,o),
(884.767,564.679,c),
(884.765,563.918,o),
(885.584,563.099,o),
(886.729,562.715,c),
(889.649,561.737,o),
(889.992,559.832,o),
(890.28,543.03,c),
(890.472,531.757,o),
(890.616,532.605,o),
(888.642,533.376,c),
(887.737,533.728,o),
(886.619,533.794,o),
(881.348,533.803,c),
(875.781,533.812,o),
(874.838,533.754,o),
(872.437,533.255,c),
(866.752,532.073,o),
(863.23,530.574,o),
(858.799,527.45,c),
(852.518,523.023,o),
(847.937,517.46,o),
(845.643,511.475,c),
(843.759,506.558,o),
(843.208,503.63,o),
(843.205,498.535,c),
(843.201,490.124,o),
(845.757,483.42,o),
(851.05,477.956,c),
(853.822,475.094,o),
(855.282,474.012,o),
(858.521,472.421,c),
(862.839,470.3,o),
(869.553,469.087,o),
(873.572,469.703,c),
(877.315,470.276,o),
(882.719,472.255,o),
(888.239,475.075,c),
(889.546,475.743,o),
(890.679,476.185,o),
(890.758,476.057,c),
(890.836,475.929,o),
(891,474.526,o),
(891.12,472.938,c),
(891.241,471.349,o),
(891.456,469.742,o),
(891.599,469.366,c),
(891.853,468.698,o),
(891.893,468.685,o),
(893.28,468.83,c),
(894.062,468.912,o),
(896.009,469.413,o),
(897.607,469.943,c),
(901.189,471.13,o),
(904.106,471.952,o),
(907.543,472.741,c),
(910.385,473.394,o),
(911.247,473.812,o),
(911.671,474.743,c),
(912.069,475.617,o),
(911.451,476.163,o),
(909.478,476.68,c),
(904.811,477.904,o),
(903.461,480,o),
(903.031,486.694,c),
(902.622,493.038,o),
(902.934,550.806,o),
(903.404,555.908,c),
(903.608,558.124,o),
(903.89,561.53,o),
(904.031,563.477,c),
(904.26,566.66,o),
(904.375,567.239,o),
(905.173,569.214,c),
(905.92,571.064,o),
(906.04,571.609,o),
(905.931,572.665,c),
(905.806,573.891,o),
(905.192,575.447,o),
(904.84,575.432,c),
(904.743,575.428,o),
(903.509,575.041,o),
(902.1,574.571,cs)
);
},
{
closed = 1;
nodes = (
(93.414,566.039,o),
(85.562,563.84,o),
(79.214,559.532,c),
(75.482,557,o),
(71.716,551.735,o),
(70.335,547.119,c),
(69.345,543.811,o),
(68.782,540.074,o),
(68.958,537.977,c),
(69.513,531.362,o),
(70.347,528.799,o),
(73.255,524.78,c),
(75.681,521.426,o),
(77.779,519.747,o),
(82.683,517.234,c),
(84.744,516.178,o),
(90.315,513.916,o),
(90.855,513.916,c),
(90.997,513.916,o),
(91.459,513.768,o),
(91.882,513.586,c),
(93.152,513.042,o),
(95.281,512.254,o),
(96.191,511.993,c),
(97.697,511.56,o),
(105.01,509.042,o),
(105.802,508.684,c),
(106.223,508.494,o),
(107.391,507.987,o),
(108.398,507.559,c),
(116.543,504.092,o),
(120.434,500.761,o),
(122.076,495.85,c),
(122.804,493.67,o),
(122.811,489.819,o),
(122.091,487.549,c),
(120.53,482.631,o),
(116.31,478.704,o),
(110.596,476.853,c),
(106.248,475.444,o),
(99.905,475.081,o),
(94.482,475.93,c),
(91.486,476.4,o),
(86.642,477.894,o),
(84.761,478.929,c),
(79.696,481.716,o),
(75.808,486.596,o),
(73.242,493.386,c),
(72.764,494.65,o),
(72.195,495.796,o),
(71.978,495.933,c),
(71.411,496.29,o),
(68.939,495.707,o),
(68.732,495.167,c),
(68.564,494.73,o),
(69.029,473.829,o),
(69.236,472.476,c),
(69.305,472.024,o),
(69.567,471.573,o),
(69.847,471.424,c),
(70.329,471.166,o),
(73.858,470.374,o),
(80.811,468.963,c),
(84.671,468.18,o),
(90.927,467.565,o),
(97.046,467.368,c),
(103.028,467.175,o),
(109.99,468.086,o),
(115.601,469.794,c),
(116.541,470.08,o),
(117.584,470.447,o),
(117.92,470.61,c),
(118.256,470.772,o),
(119.244,471.2,o),
(120.117,471.56,c),
(123.983,473.153,o),
(129.011,477.243,o),
(131.941,481.178,c),
(133.95,483.876,o),
(135.064,486.266,o),
(135.834,489.526,c),
(136.821,493.704,o),
(137.041,495.528,o),
(136.879,498.181,c),
(136.316,507.417,o),
(132.476,513.515,o),
(124.109,518.462,c),
(120.04,520.868,o),
(116.919,522.063,o),
(102.892,526.585,c),
(93.185,529.715,o),
(90.083,531.247,o),
(86.784,534.541,c),
(83.181,538.138,o),
(81.832,542.45,o),
(82.767,547.379,c),
(83.376,550.594,o),
(86.628,555.051,o),
(89.585,556.725,c),
(93.37,558.868,o),
(96.077,559.587,o),
(100.952,559.746,c),
(104.495,559.861,o),
(105.171,559.812,o),
(108.222,559.22,c),
(113.234,558.248,o),
(115.232,557.426,o),
(117.498,555.406,c),
(121.208,552.1,o),
(124.66,545.737,o),
(125.356,540.922,c),
(125.528,539.73,l),
(127.009,539.884,l),
(127.823,539.969,o),
(128.776,540.039,o),
(129.125,540.039,c),
(129.761,540.039,l),
(129.698,552.174,l),
(129.664,558.848,o),
(129.551,564.395,o),
(129.446,564.499,c),
(129.245,564.7,o),
(126.66,565.198,o),
(122.803,565.779,c),
(119.328,566.301,o),
(107.928,566.896,o),
(104.858,566.715,cs)
);
},
{
closed = 1;
nodes = (
(271.871,564.81,o),
(271.778,562.327,o),
(271.952,562.045,c),
(272.064,561.864,o),
(273.625,561.401,o),
(275.421,561.016,c),
(279.492,560.145,o),
(280.699,559.77,o),
(281.916,559.002,c),
(285.676,556.628,o),
(285.852,553.233,o),
(282.625,545.357,c),
(281.886,543.553,o),
(280.605,540.658,o),
(279.779,538.922,c),
(278.952,537.187,o),
(277.56,534.178,o),
(276.687,532.237,c),
(275.813,530.295,o),
(274.436,527.329,o),
(273.626,525.645,c),
(272.817,523.961,o),
(271.687,521.594,o),
(271.116,520.386,c),
(270.544,519.177,o),
(269.405,516.78,o),
(268.583,515.059,c),
(267.762,513.337,o),
(267.09,511.894,o),
(267.09,511.851,c),
(267.09,511.807,o),
(266.363,510.249,o),
(265.475,508.388,c),
(264.587,506.527,o),
(263.228,503.632,o),
(262.454,501.953,c),
(261.68,500.275,o),
(260.606,497.968,o),
(260.067,496.826,c),
(258.473,493.448,o),
(257.324,490.931,o),
(257.324,490.812,c),
(257.324,490.576,o),
(255.503,487.549,o),
(255.361,487.549,c),
(255.16,487.549,o),
(252.441,493.118,o),
(252.441,493.529,c),
(252.441,493.587,o),
(251.828,494.93,o),
(251.078,496.512,c),
(249.918,498.961,o),
(246.271,507.795,o),
(242.632,516.968,c),
(242.1,518.311,o),
(241.577,519.629,o),
(241.47,519.897,c),
(241.364,520.166,o),
(241.156,520.66,o),
(241.008,520.996,c),
(240.86,521.332,o),
(240.199,522.98,o),
(239.539,524.658,c),
(238.878,526.337,o),
(237.817,528.973,o),
(237.18,530.518,c),
(236.543,532.062,o),
(235.714,534.149,o),
(235.337,535.156,c),
(234.96,536.163,o),
(233.705,539.294,o),
(232.547,542.114,c),
(229.952,548.434,o),
(228.521,552.588,o),
(228.343,554.312,c),
(228.233,555.372,o),
(228.304,555.781,o),
(228.711,556.438,c),
(230.238,558.9,o),
(233.269,560.505,o),
(238.328,561.53,c),
(239.712,561.811,o),
(241.007,562.2,o),
(241.205,562.395,c),
(241.437,562.624,o),
(241.567,563.245,o),
(241.571,564.149,c),
(241.577,565.548,l),
(219.604,565.478,l),
(197.632,565.408,l),
(197.561,563.599,l),
(197.491,561.834,o),
(197.506,561.782,o),
(198.171,561.448,c),
(198.546,561.26,o),
(199.386,560.976,o),
(200.038,560.817,c),
(200.691,560.657,o),
(201.954,560.159,o),
(202.846,559.71,c),
(208.319,556.953,o),
(210.785,553.388,o),
(218.143,537.598,c),
(219.175,535.382,o),
(220.163,533.24,o),
(220.338,532.837,c),
(220.512,532.434,o),
(220.928,531.5,o),
(221.261,530.762,c),
(222.179,528.727,o),
(225.577,520.417,o),
(227.401,515.747,c),
(228.293,513.464,o),
(229.124,511.377,o),
(229.248,511.108,c),
(229.372,510.84,o),
(229.978,509.302,o),
(230.594,507.69,c),
(231.211,506.079,o),
(232.05,503.937,o),
(232.458,502.93,c),
(233.736,499.774,o),
(237.539,490.175,o),
(238.067,488.77,c),
(238.677,487.149,o),
(239.727,484.438,o),
(240.005,483.765,c),
(240.369,482.882,o),
(244.386,472.562,o),
(244.852,471.313,c),
(245.659,469.145,o),
(246.312,467.188,o),
(246.582,466.125,c),
(246.845,465.088,l),
(247.995,465.104,l),
(250.557,465.14,o),
(254.232,465.698,o),
(254.341,466.068,c),
(254.4,466.268,o),
(254.765,467.118,o),
(255.154,467.957,c),
(255.542,468.797,o),
(255.859,469.535,o),
(255.859,469.599,c),
(255.859,469.662,o),
(256.744,471.721,o),
(257.824,474.176,c),
(258.905,476.63,o),
(259.885,478.857,o),
(260.002,479.126,c),
(262.257,484.292,o),
(265.837,492.355,o),
(266.67,494.141,c),
(267.265,495.416,o),
(268.33,497.778,o),
(269.037,499.39,c),
(271.629,505.293,o),
(271.818,505.711,o),
(274.17,510.742,c),
(275.143,512.823,o),
(276.255,515.213,o),
(276.641,516.052,c),
(277.028,516.891,o),
(277.66,518.265,o),
(278.047,519.104,c),
(281.505,526.607,o),
(287.573,538.941,o),
(289.792,542.978,c),
(290.637,544.517,o),
(291.656,546.381,o),
(292.055,547.119,c),
(292.454,547.858,o),
(293.62,549.885,o),
(294.645,551.624,c),
(297.983,557.286,o),
(301.749,560.316,o),
(307.411,561.893,c),
(308.792,562.277,l),
(308.964,563.757,l),
(309.093,564.865,o),
(309.052,565.318,o),
(308.804,565.56,c),
(308.533,565.824,o),
(307.314,565.844,o),
(302.246,565.667,c),
(295.194,565.422,o),
(280.924,565.407,o),
(275.664,565.64,c),
(273.399,565.741,o),
(272.129,565.709,o),
(272.084,565.552,cs)
);
},
{
closed = 1;
nodes = (
(416.502,565.071,o),
(416.433,564.137,o),
(416.415,563.166,c),
(416.382,561.401,l),
(418.945,561.254,l),
(422.063,561.075,o),
(423.457,560.736,o),
(425.567,559.646,c),
(427.377,558.71,o),
(428.646,557.229,o),
(428.882,555.776,c),
(429.058,554.69,o),
(428.387,552.11,o),
(427.428,550.186,c),
(426.215,547.756,o),
(420.962,539.179,o),
(418.041,534.862,c),
(416.524,532.618,o),
(414.174,529.048,o),
(412.819,526.927,c),
(411.464,524.806,o),
(410.31,523.025,o),
(410.255,522.969,c),
(410.044,522.753,o),
(408.901,524.07,o),
(408.168,525.374,c),
(406.962,527.519,o),
(404.463,531.381,o),
(397.56,541.768,c),
(391.636,550.681,o),
(388.916,555.302,o),
(388.916,556.452,c),
(388.916,558.088,o),
(391.514,560.206,o),
(394.513,561.015,c),
(395.594,561.307,o),
(397.028,561.611,o),
(397.7,561.69,c),
(398.372,561.77,o),
(399.039,561.976,o),
(399.181,562.147,c),
(399.323,562.318,o),
(399.406,563.1,o),
(399.366,563.883,c),
(399.292,565.308,l),
(377.686,565.311,l),
(365.802,565.313,o),
(355.887,565.226,o),
(355.652,565.119,c),
(355.31,564.963,o),
(355.225,564.613,o),
(355.225,563.354,c),
(355.225,561.545,o),
(355.275,561.495,o),
(357.544,561.041,c),
(359.671,560.615,o),
(363.145,559.183,o),
(365.112,557.919,c),
(369.45,555.133,o),
(376.686,546.476,o),
(385.975,532.959,c),
(392.193,523.911,o),
(397.207,516.232,o),
(397.916,514.672,c),
(398.77,512.793,o),
(398.292,486.954,o),
(397.316,482.228,c),
(396.569,478.608,o),
(395.192,476.781,o),
(392.068,475.258,c),
(390.161,474.329,o),
(386.376,473.147,o),
(385.288,473.141,c),
(384.933,473.139,o),
(384.522,473.056,o),
(384.374,472.958,c),
(383.984,472.699,o),
(383.74,471.093,o),
(383.933,470.06,c),
(384.1,469.173,l),
(387.116,469.338,l),
(388.775,469.428,o),
(391.259,469.604,o),
(392.637,469.729,c),
(396.618,470.087,o),
(415.4,470.006,o),
(421.509,469.603,c),
(424.463,469.408,o),
(427.384,469.247,o),
(428,469.244,c),
(429.118,469.238,l),
(429.374,470.886,l),
(429.514,471.793,o),
(429.541,472.63,o),
(429.434,472.746,c),
(429.327,472.863,o),
(428.104,473.163,o),
(426.717,473.413,c),
(423.517,473.991,o),
(419.75,475.319,o),
(417.784,476.562,c),
(416.182,477.576,o),
(414.946,479.061,o),
(414.388,480.643,c),
(413.733,482.499,o),
(413.542,487.61,o),
(413.619,501.221,c),
(413.696,514.771,l),
(414.369,515.991,l),
(415.74,518.478,o),
(419.588,524.427,o),
(424.555,531.738,c),
(425.513,533.148,o),
(426.832,535.144,o),
(427.486,536.174,c),
(428.14,537.203,o),
(429.558,539.236,o),
(430.638,540.69,c),
(431.717,542.145,o),
(433.289,544.269,o),
(434.13,545.41,c),
(438.65,551.54,o),
(441.805,555.051,o),
(444.824,557.309,c),
(446.673,558.691,o),
(450.655,560.624,o),
(453.003,561.278,c),
(454.077,561.577,o),
(455.231,561.901,o),
(455.566,561.997,c),
(456.115,562.155,o),
(456.184,562.316,o),
(456.251,563.593,c),
(456.293,564.405,o),
(456.21,565.128,o),
(456.056,565.282,c),
(455.637,565.701,o),
(416.729,565.661,o),
(416.567,565.242,cs)
);
},
{
closed = 1;
nodes = (
(561.841,534.988,o),
(557.826,534.045,o),
(554.321,532.542,c),
(550.909,531.079,o),
(548.954,530.109,o),
(548.63,529.718,c),
(548.272,529.288,o),
(548.212,528.476,o),
(548.287,525.078,c),
(548.35,522.247,o),
(548.544,522.043,o),
(550.27,523.005,c),
(555.164,525.734,o),
(557.236,526.499,o),
(560.712,526.861,c),
(567.503,527.57,o),
(573.438,524.459,o),
(575.425,519.149,c),
(576.012,517.578,o),
(576.478,513.325,o),
(576.372,510.498,c),
(576.294,508.423,l),
(575.195,508.367,l),
(571.562,508.184,o),
(566.158,507.73,o),
(563.845,507.413,c),
(561.226,507.053,o),
(555.153,505.624,o),
(554.274,505.159,c),
(554.031,505.031,o),
(552.789,504.424,o),
(551.514,503.81,c),
(548.277,502.252,o),
(546.043,500.63,o),
(544.181,498.484,c),
(541.104,494.938,o),
(540.142,491.995,o),
(540.367,486.816,c),
(540.507,483.611,o),
(540.973,481.565,o),
(542.141,479.036,c),
(543.654,475.757,o),
(546.717,472.458,o),
(549.684,470.912,c),
(556.531,467.343,o),
(566.907,468.584,o),
(574.755,473.91,c),
(575.519,474.429,o),
(576.248,474.854,o),
(576.375,474.854,c),
(576.784,474.854,o),
(577.374,473.702,o),
(578.206,471.273,c),
(579.192,468.397,o),
(579.715,467.865,o),
(581.19,468.235,c),
(589.267,470.262,o),
(590.339,470.49,o),
(595.671,471.31,c),
(600.57,472.064,o),
(600.925,472.21,o),
(601.032,473.512,c),
(601.077,474.049,o),
(600.99,474.899,o),
(600.84,475.403,c),
(600.566,476.318,l),
(598.269,476.318,l),
(593.946,476.318,o),
(592.373,476.997,o),
(590.584,479.631,c),
(588.741,482.346,o),
(588.822,481.246,o),
(588.91,502.563,c),
(588.989,521.606,l),
(588.447,523.476,l),
(587.334,527.313,o),
(585.63,530.034,o),
(583.192,531.866,c),
(580.822,533.648,o),
(577.306,534.658,o),
(571.769,535.148,c),
(569.056,535.388,o),
(568.387,535.398,o),
(565.796,535.236,cs)
);
},
{
closed = 1;
nodes = (
(883.759,525.651,o),
(885.242,525.155,o),
(885.723,524.907,c),
(887.213,524.139,o),
(888.614,522.75,o),
(889.288,521.372,c),
(889.864,520.196,o),
(889.958,519.626,o),
(890.145,516.19,c),
(890.261,514.066,o),
(890.434,505.679,o),
(890.529,497.552,c),
(890.703,482.775,l),
(889.935,482.129,l),
(887.629,480.188,o),
(881.59,479.214,o),
(876.587,479.976,c),
(866.493,481.514,o),
(859.231,488.085,o),
(856.615,498.047,c),
(855.648,501.729,o),
(855.379,503.9,o),
(855.549,506.667,c),
(855.925,512.821,o),
(857.094,516.013,o),
(860.551,520.325,c),
(862.946,523.313,o),
(865.831,525.094,o),
(870.117,526.233,c),
(872.23,526.794,o),
(872.774,526.841,o),
(876.221,526.754,c),
(879.347,526.676,o),
(880.426,526.546,o),
(882.427,526.009,cs)
);
},
{
closed = 1;
nodes = (
(733.085,523.547,o),
(737.397,519.254,o),
(739.762,513.067,c),
(741.701,507.995,o),
(742.334,502.68,o),
(741.73,496.545,c),
(740.878,487.884,o),
(736.395,480.65,o),
(730.105,477.784,c),
(723.431,474.744,o),
(716.179,475.327,o),
(710.815,479.335,c),
(709.282,480.481,o),
(708.029,481.717,o),
(707.192,482.91,c),
(706.421,484.009,l),
(706.421,501.855,l),
(706.421,516.112,o),
(706.485,519.819,o),
(706.741,520.288,c),
(707.86,522.339,o),
(713.592,524.95,o),
(718.444,525.62,c),
(721.029,525.977,o),
(725.679,525.758,o),
(727.584,525.189,cs)
);
},
{
closed = 1;
nodes = (
(575.366,501.044,o),
(575.886,500.797,o),
(575.985,500.644,c),
(576.084,500.491,o),
(576.166,496.176,o),
(576.168,491.054,c),
(576.172,481.741,l),
(575.456,480.975,l),
(574.647,480.109,o),
(571.718,478.672,o),
(569.921,478.259,c),
(568.148,477.852,o),
(564.345,477.911,o),
(562.378,478.375,c),
(557.369,479.56,o),
(553.834,482.839,o),
(552.69,487.363,c),
(551.694,491.302,o),
(552.463,494.122,o),
(555.308,496.967,c),
(557.451,499.111,o),
(560.827,500.641,o),
(564.648,501.201,c),
(566.741,501.508,o),
(573.708,501.502,o),
(574.829,501.192,cs)
);
},
{
closed = 1;
nodes = (
(552.686,388.262,o),
(550.708,387.551,o),
(550.171,387.336,c),
(549.634,387.121,o),
(548.988,386.878,o),
(548.736,386.795,c),
(548.484,386.713,o),
(547.221,386.095,o),
(545.929,385.423,c),
(544.636,384.75,o),
(543.072,383.94,o),
(542.452,383.623,c),
(540.919,382.838,o),
(540.511,382.321,o),
(540.463,381.104,c),
(540.417,379.953,o),
(540.771,379.545,o),
(543.091,378.083,c),
(545.198,376.755,o),
(545.045,379.916,o),
(545.035,337.891,c),
(545.027,303.141,o),
(545,300.808,o),
(544.59,299.334,c),
(543.632,295.889,o),
(541.058,293.75,o),
(536.907,292.951,c),
(535.6,292.699,o),
(535.323,292.555,o),
(535.115,292.018,c),
(534.863,291.365,o),
(535.018,289.331,o),
(535.342,289.044,c),
(535.441,288.957,o),
(538.049,289.042,o),
(541.138,289.235,c),
(545.342,289.497,o),
(549.115,289.543,o),
(556.152,289.417,c),
(561.322,289.325,o),
(566.539,289.235,o),
(567.746,289.217,c),
(569.94,289.185,l),
(570.145,290.639,l),
(570.389,292.376,o),
(570.217,292.579,o),
(568.294,292.828,c),
(565.168,293.232,o),
(561.712,294.605,o),
(560.011,296.118,c),
(557.555,298.302,o),
(557.561,298.237,o),
(557.659,319.738,c),
(557.737,336.948,o),
(557.75,337.364,o),
(558.227,337.891,c),
(558.993,338.736,o),
(563.383,340.73,o),
(565.701,341.285,c),
(570.153,342.352,o),
(576.095,342.419,o),
(579.39,341.44,c),
(583.776,340.137,o),
(587.095,336.461,o),
(588.415,331.443,c),
(589.132,328.715,o),
(589.344,324.63,o),
(589.348,313.477,c),
(589.352,302,o),
(589.196,299.705,o),
(588.291,297.919,c),
(587.034,295.438,o),
(584.182,293.597,o),
(580.302,292.763,c),
(578.249,292.321,l),
(578,291,l),
(578,291,o),
(578.066,290.156,o),
(578.331,289.601,c),
(578.659,288.912,o),
(578.819,288.804,o),
(579.339,288.919,c),
(579.678,288.994,o),
(583.691,289.181,o),
(588.257,289.335,c),
(594.434,289.544,o),
(598.615,289.546,o),
(604.598,289.343,c),
(609.02,289.193,o),
(612.687,289.12,o),
(612.748,289.18,c),
(612.808,289.24,o),
(612.912,290.056,o),
(612.979,290.994,c),
(613.101,292.699,l),
(612,293,l),
(606,294,o),
(603,296,o),
(602,299,c),
(602,300,o),
(601.615,311.31,o),
(601.562,323.608,c),
(601.541,328.577,o),
(601.418,333.85,o),
(601.289,335.327,c),
(600.718,341.87,o),
(598.863,345.541,o),
(594.773,348.219,c),
(592.854,349.476,o),
(591.705,349.951,o),
(589.015,350.598,c),
(580.712,352.593,o),
(568.731,349.879,o),
(560.227,344.075,c),
(559.178,343.359,o),
(558.221,342.773,o),
(558.1,342.773,c),
(557.979,342.773,o),
(557.928,343.46,o),
(557.987,344.299,c),
(558.046,345.138,o),
(558.152,350.11,o),
(558.222,355.347,c),
(558.338,363.97,o),
(558.845,377.52,o),
(559.206,381.608,c),
(559.283,382.49,o),
(559.507,383.743,o),
(559.703,384.393,c),
(560.119,385.775,o),
(560.163,387.921,o),
(559.802,389.221,c),
(559.574,390.041,o),
(559.466,390.135,o),
(558.765,390.122,c),
(558.335,390.114,o),
(556.445,389.571,o),
(554.565,388.917,cs)
);
},
{
closed = 1;
nodes = (
(259.627,387.214,o),
(254.552,383.466,o),
(249.087,375.823,c),
(245.652,371.018,o),
(243.858,366.719,o),
(242.68,360.474,c),
(241.689,355.215,o),
(241.429,354.113,o),
(240.938,353.094,c),
(240.125,351.408,o),
(235.674,347.365,o),
(233.468,346.308,c),
(232.456,345.823,o),
(231.934,345.062,o),
(231.934,344.071,c),
(231.934,343.086,o),
(232.297,342.884,o),
(234.411,342.697,c),
(237.579,342.415,o),
(239.315,342.006,o),
(239.924,341.397,c),
(240.502,340.819,l),
(240.422,320.251,l),
(240.335,297.688,o),
(240.388,298.495,o),
(238.862,296.49,c),
(237.552,294.769,o),
(234.883,293.38,o),
(231.897,292.865,c),
(230.647,292.65,o),
(230.433,292.281,o),
(230.518,290.488,c),
(230.591,288.94,l),
(231.934,288.987,l),
(240.175,289.27,o),
(257.766,289.326,o),
(261.717,289.082,c),
(265.304,288.86,o),
(266.479,288.859,o),
(266.744,289.079,c),
(266.97,289.267,o),
(267.09,289.86,o),
(267.09,290.793,c),
(267.09,292.514,o),
(267.061,292.535,o),
(264,293.063,c),
(261.217,293.543,o),
(257.73,294.66,o),
(256.411,295.492,c),
(255.199,296.258,o),
(254.297,297.396,o),
(253.756,298.845,c),
(253.411,299.768,o),
(253.326,301.611,o),
(253.179,311.401,c),
(253.084,317.712,o),
(253.038,327.216,o),
(253.078,332.52,c),
(253.149,342.163,l),
(260.15,342.285,l),
(267.151,342.407,l),
(268.741,344.116,l),
(270.541,346.051,o),
(271.274,347.123,o),
(271.713,348.459,c),
(272.28,350.187,o),
(272.613,350.136,o),
(262.012,349.944,c),
(252.614,349.774,l),
(252.755,355.978,l),
(253.053,369.173,o),
(254.637,375.423,o),
(258.545,378.827,c),
(260.064,380.15,o),
(260.923,380.458,o),
(263.095,380.464,c),
(265.233,380.469,o),
(265.141,380.503,o),
(269.363,378.199,c),
(274.458,375.419,o),
(278.092,376.391,o),
(279.64,380.949,c),
(280.447,383.328,o),
(279.994,385.376,o),
(278.363,386.72,c),
(276.166,388.531,o),
(270.532,389.386,o),
(266.319,388.546,cs)
);
},
{
closed = 1;
nodes = (
(719,378,o),
(718,377,o),
(717,375,c),
(717,374,o),
(716,374,o),
(716,372,c),
(716,370,o),
(717,370,o),
(717,368,c),
(718,366,o),
(720,365,o),
(723,365,c),
(726,365,o),
(727,366,o),
(728,367,c),
(730,369,o),
(730,370,o),
(730,372,c),
(730,374,o),
(729,376,o),
(727,378,c),
(726,379,o),
(723,380,o),
(721,379,cs)
);
},
{
closed = 1;
nodes = (
(726.728,351.379,o),
(721.017,349.169,o),
(718.994,348.345,c),
(716.042,347.144,o),
(711.424,344.679,o),
(710.917,344.035,c),
(710.319,343.275,o),
(710.297,341.758,o),
(710.876,341.265,c),
(711.112,341.064,o),
(711.688,340.752,o),
(712.158,340.57,c),
(714.579,339.634,o),
(715.667,338.453,o),
(716.131,336.259,c),
(716.561,334.219,o),
(716.525,301.766,o),
(716.09,299.683,c),
(715.344,296.115,o),
(712.736,294.037,o),
(707.351,292.72,c),
(706.158,292.428,o),
(706,292.095,o),
(706.25,290.405,c),
(706.431,289.185,l),
(712.041,289.307,l),
(715.127,289.374,o),
(721.112,289.429,o),
(725.342,289.429,c),
(729.572,289.429,o),
(734.68,289.374,o),
(736.694,289.307,c),
(740.356,289.185,l),
(740.583,290.614,l),
(740.883,292.51,o),
(740.683,292.782,o),
(738.745,293.114,c),
(733.815,293.959,o),
(731.054,295.312,o),
(729.917,297.439,c),
(729.37,298.462,l),
(729.374,318.848,l),
(729.378,339.667,o),
(729.498,342.993,o),
(730.35,345.803,c),
(730.967,347.84,o),
(730.755,352.561,o),
(730.048,352.531,c),
(729.944,352.527,o),
(729.309,352.322,o),
(728.638,352.077,cs)
);
},
{
closed = 1;
nodes = (
(840,352,o),
(835,350,o),
(833,349,c),
(828,347,o),
(825,345,o),
(824,344,c),
(823,343,o),
(824,342,o),
(825,341,c),
(827,341,o),
(828,340,o),
(829,339,c),
(830,338,o),
(830,337,o),
(830,319,c),
(830,302,o),
(830,299,o),
(829,298,c),
(829,297,o),
(828,296,o),
(828,296,c),
(826,294,o),
(823,293,o),
(822,293,c),
(820,293,o),
(820,292,o),
(820,291,c),
(820,290,o),
(820,289,o),
(820,289,c),
(820,289,o),
(822,289,o),
(824,289,c),
(826,289,o),
(833,289,o),
(840,289,c),
(848,289,o),
(853,289,o),
(853,289,c),
(854,290,o),
(854,290,o),
(854,291,c),
(854,292,o),
(854,293,o),
(851,293,c),
(849,294,o),
(847,294,o),
(846,295,c),
(845,296,o),
(844,296,o),
(844,297,c),
(843,299,o),
(842,301,o),
(843,320,c),
(843,338,o),
(843,336,o),
(845,337,c),
(849,340,o),
(854,342,o),
(859,342,c),
(863,342,o),
(866,341,o),
(868,339,c),
(870,337,o),
(871,335,o),
(872,330,c),
(872,327,o),
(872,325,o),
(872,315,c),
(872,299,o),
(872,298,o),
(869,296,c),
(868,295,o),
(866,294,o),
(863,293,c),
(861,292,o),
(861,292,o),
(861,291,c),
(861,289,o),
(861,289,o),
(862,289,c),
(862,289,o),
(864,289,o),
(866,289,c),
(868,289,o),
(872,289,o),
(874,289,c),
(877,290,o),
(883,289,o),
(888,289,c),
(892,289,o),
(896,289,o),
(896,289,c),
(896,289,o),
(896,290,o),
(896,291,c),
(896,292,l),
(895,292,l),
(894,293,o),
(893,293,o),
(891,294,c),
(887,295,o),
(885,296,o),
(885,299,c),
(885,300,o),
(885,308,o),
(885,318,c),
(885,337,l),
(886,337,l),
(886,338,o),
(887,339,o),
(889,339,c),
(895,342,o),
(904,343,o),
(909,340,c),
(910,339,o),
(912,337,o),
(913,336,c),
(915,332,o),
(915,328,o),
(915,317,c),
(915,306,o),
(915,300,o),
(914,298,c),
(914,297,o),
(912,295,o),
(910,294,c),
(909,293,o),
(906,292,o),
(905,292,c),
(904,292,o),
(904,292,o),
(904,291,c),
(904,291,o),
(904,290,o),
(904,289,c),
(904,289,l),
(907,289,l),
(910,289,o),
(932,289,o),
(936,289,c),
(938,289,o),
(938,289,o),
(938,291,c),
(939,292,o),
(938,293,o),
(937,293,c),
(933,294,o),
(931,295,o),
(929,296,c),
(928,297,o),
(928,296,o),
(927,317,c),
(927,336,o),
(927,336,o),
(927,339,c),
(925,347,o),
(921,350,o),
(912,351,c),
(907,352,o),
(902,351,o),
(895,348,c),
(891,346,o),
(889,345,o),
(887,343,c),
(885,342,o),
(885,342,o),
(884,344,c),
(882,348,o),
(878,350,o),
(873,351,c),
(869,352,o),
(864,352,o),
(860,350,c),
(855,349,o),
(852,347,o),
(846,343,c),
(845,343,o),
(844,342,o),
(843,342,c),
(843,342,o),
(843,342,o),
(843,342,c),
(843,343,o),
(843,345,o),
(843,347,c),
(844,351,o),
(844,351,o),
(843,352,c),
(842,352,o),
(843,352,o),
(841,352,cs)
);
},
{
closed = 1;
nodes = (
(96.707,351.116,o),
(89.505,347.736,o),
(83.124,341.458,c),
(78.809,337.212,o),
(75.562,331.026,o),
(74.331,324.707,c),
(74.102,323.531,o),
(73.87,320.775,o),
(73.797,318.347,c),
(73.547,310.071,o),
(75.08,304.12,o),
(78.985,298.212,c),
(84.02,290.594,o),
(93.312,286.386,o),
(103.464,287.124,c),
(105.171,287.249,o),
(107.007,287.415,o),
(107.544,287.495,c),
(110.557,287.943,o),
(115.892,289.674,o),
(119.426,291.351,c),
(121.996,292.571,o),
(125.37,295.023,o),
(125.754,295.95,c),
(126.108,296.804,o),
(125.822,299.031,o),
(125.065,301.313,c),
(124.585,302.76,o),
(123.998,303.07,o),
(123.164,302.317,c),
(120.987,300.351,o),
(117.905,299.054,o),
(113.403,298.211,c),
(111.018,297.764,o),
(105.56,297.823,o),
(102.95,298.324,c),
(96.328,299.594,o),
(90.783,303.869,o),
(87.709,310.074,c),
(86.283,312.953,o),
(85.205,317.681,o),
(85.205,321.06,c),
(85.205,321.942,l),
(96.008,322.106,l),
(111.737,322.344,o),
(116.885,322.711,o),
(119.357,323.771,c),
(121.193,324.558,o),
(123.693,326.366,o),
(125.11,327.932,c),
(126.972,329.989,o),
(127.441,331.336,o),
(127.441,334.624,c),
(127.441,343.432,o),
(122.101,349.492,o),
(112.709,351.344,c),
(110.681,351.743,o),
(107.207,351.941,o),
(105.103,351.775,cs)
);
},
{
closed = 1;
nodes = (
(421.697,349.368,o),
(421.288,349.086,o),
(420.846,349.182,c),
(420.539,349.249,o),
(419.189,349.598,o),
(417.847,349.958,c),
(413.975,350.994,o),
(410.716,351.222,o),
(406.543,350.748,c),
(402.074,350.24,o),
(398.994,349.403,o),
(395.622,347.781,c),
(389.207,344.695,o),
(383.944,340.077,o),
(381.243,335.165,c),
(379.475,331.947,o),
(378.67,328.737,o),
(378.641,324.78,c),
(378.564,314.609,o),
(384.143,307.607,o),
(395.325,303.839,c),
(396.097,303.579,o),
(396.729,303.279,o),
(396.729,303.174,c),
(396.729,303.069,o),
(396.378,302.679,o),
(395.95,302.309,c),
(391.128,298.14,o),
(387.502,294.519,o),
(386.839,293.209,c),
(385.995,291.545,o),
(385.642,289.279,o),
(385.995,287.806,c),
(386.692,284.902,o),
(390.793,282.405,o),
(396.118,281.643,c),
(397.457,281.452,o),
(398.071,281.26,o),
(398.071,281.034,c),
(398.071,280.853,o),
(396.863,279.97,o),
(395.386,279.073,c),
(389.449,275.466,o),
(384.162,271.54,o),
(380.883,268.304,c),
(379.427,266.868,o),
(378.725,265.937,o),
(378.015,264.5,c),
(377.085,262.619,o),
(377.075,262.568,o),
(377.086,259.778,c),
(377.099,256.403,o),
(377.575,254.922,o),
(379.355,252.722,c),
(381.344,250.262,o),
(382.949,249.041,o),
(386.475,247.304,c),
(389.249,245.937,o),
(391.848,245.152,o),
(395.752,244.503,c),
(401.058,243.62,o),
(402.732,243.542,o),
(406.616,243.996,c),
(412.701,244.708,o),
(416.504,245.753,o),
(421.118,247.981,c),
(423.687,249.222,o),
(427.566,251.649,o),
(429.321,253.114,c),
(434.1,257.101,o),
(437.814,261.595,o),
(439.562,265.503,c),
(440.825,268.328,o),
(441.591,271.355,o),
(441.816,274.407,c),
(442.257,280.38,o),
(439.479,285.235,o),
(434.082,287.926,c),
(430.622,289.651,o),
(426.993,290.48,o),
(421.631,290.773,c),
(412.642,291.263,o),
(405.479,291.995,o),
(401.056,292.875,c),
(399.308,293.223,o),
(398.007,295.582,o),
(398.339,297.801,c),
(398.484,298.766,o),
(398.596,298.899,o),
(399.749,299.474,c),
(400.438,299.817,o),
(401.569,300.484,o),
(402.264,300.955,c),
(403.333,301.681,o),
(404.063,301.92,o),
(407.024,302.514,c),
(410.598,303.23,o),
(413.366,303.97,o),
(414.673,304.556,c),
(415.076,304.737,o),
(416.064,305.164,o),
(416.87,305.505,c),
(418.208,306.072,o),
(420.103,307.019,o),
(421.639,307.888,c),
(423.792,309.106,o),
(428.062,313.291,o),
(429.532,315.623,c),
(433.423,321.794,o),
(434.727,327.697,o),
(433.71,334.535,c),
(433.282,337.418,o),
(432.701,339.857,o),
(432.363,340.196,c),
(431.748,340.811,o),
(432.199,340.977,o),
(434.631,341.032,c),
(439.688,341.146,o),
(442.618,341.439,o),
(443.055,341.876,c),
(443.665,342.486,o),
(443.595,347.164,o),
(442.956,348.522,c),
(442.502,349.487,l),
(436.278,349.651,l),
(428.002,349.869,o),
(425.94,349.987,o),
(425.853,350.246,c),
(425.626,350.917,o),
(424.768,352.047,o),
(424.503,352.023,c),
(424.333,352.008,o),
(423.567,351.335,o),
(422.8,350.528,cs)
);
},
{
closed = 1;
nodes = (
(107.036,344.118,o),
(108.18,343.734,o),
(108.659,343.492,c),
(111.179,342.221,o),
(113.723,339.221,o),
(114.804,336.244,c),
(115.449,334.468,o),
(115.709,330.321,o),
(115.2,329.921,c),
(114.771,329.584,o),
(112.646,329.193,o),
(109.131,328.804,c),
(105.225,328.373,o),
(85.92,328.366,o),
(85.402,328.796,c),
(85.076,329.066,o),
(85.083,329.327,o),
(85.463,331.115,c),
(86.048,333.861,o),
(86.651,335.355,o),
(87.992,337.372,c),
(90.665,341.391,o),
(94.949,344.169,o),
(99.487,344.824,c),
(100.854,345.021,o),
(104.437,344.763,o),
(106.116,344.346,cs)
);
},
{
closed = 1;
nodes = (
(412.041,343.874,o),
(414.881,342.428,o),
(416.431,340.732,c),
(417.801,339.233,o),
(419.63,335.705,o),
(420.594,332.703,c),
(421.187,330.857,o),
(421.242,330.341,o),
(421.253,326.538,c),
(421.263,322.899,o),
(421.196,322.155,o),
(420.704,320.502,c),
(418.619,313.483,o),
(415.049,310.078,o),
(408.977,309.317,c),
(405.75,308.912,o),
(402.687,309.475,o),
(399.528,311.053,c),
(393.543,314.045,o),
(389.807,325.441,o),
(392.099,333.714,c),
(392.881,336.537,o),
(393.763,338.107,o),
(395.626,339.988,c),
(398.108,342.496,o),
(400.976,343.952,o),
(404.428,344.455,c),
(406.529,344.761,o),
(407.123,344.75,o),
(409.302,344.362,cs)
);
},
{
closed = 1;
nodes = (
(421.991,277.752,o),
(424.711,276.917,o),
(426.963,274.632,c),
(429.283,272.276,o),
(430.283,267.665,o),
(429.305,263.829,c),
(428,258.708,o),
(422.256,253.961,o),
(415.452,252.38,c),
(412.309,251.65,o),
(403.845,251.597,o),
(401.266,252.292,c),
(399.047,252.889,o),
(396.595,253.911,o),
(395.279,254.788,c),
(394.696,255.176,o),
(393.965,255.634,o),
(393.654,255.806,c),
(391.257,257.134,o),
(389.443,262.161,o),
(390.143,265.534,c),
(390.52,267.349,o),
(392.509,269.875,o),
(396.302,273.356,c),
(397.264,274.239,o),
(399.099,275.662,o),
(400.381,276.52,c),
(401.662,277.377,o),
(403.204,278.462,o),
(403.809,278.931,c),
(404.881,279.762,o),
(404.948,279.78,o),
(406.616,279.648,c),
(407.556,279.573,o),
(410.44,279.24,o),
(413.025,278.907,cs)
);
},
{
closed = 1;
nodes = (
(389,206,o),
(388,206,o),
(386,205,c),
(385,204,o),
(384,204,o),
(383,203,c),
(379,202,o),
(376,200,o),
(376,200,c),
(375,199,o),
(375,197,o),
(375,196,c),
(375,196,o),
(376,196,o),
(376,195,c),
(378,195,o),
(378,194,o),
(379,192,c),
(379,190,o),
(379,83,o),
(379,80,c),
(378,77,o),
(378,76,o),
(376,75,c),
(375,73,o),
(374,72,o),
(371,72,c),
(370,72,o),
(370,71,o),
(370,71,c),
(369,71,o),
(369,68,o),
(370,68,c),
(370,68,o),
(371,68,o),
(374,68,c),
(378,68,o),
(390,69,o),
(400,68,c),
(402,68,o),
(405,68,o),
(405,68,c),
(405,69,o),
(405,69,o),
(405,70,c),
(405,72,o),
(405,72,o),
(403,72,c),
(401,73,o),
(398,74,o),
(396,74,c),
(393,76,o),
(393,77,o),
(392,80,c),
(392,83,o),
(392,102,o),
(392,103,c),
(392,104,o),
(393,104,o),
(397,103,c),
(400,102,o),
(401,102,o),
(403,102,c),
(408,102,o),
(412,103,o),
(415,105,c),
(420,107,o),
(426,110,o),
(429,114,c),
(435,119,o),
(438,126,o),
(440,133,c),
(440,137,o),
(440,145,o),
(439,148,c),
(438,153,o),
(436,157,o),
(433,160,c),
(430,163,o),
(427,165,o),
(422,166,c),
(420,167,o),
(420,167,o),
(416,167,c),
(412,167,o),
(409,166,o),
(405,165,c),
(401,163,o),
(398,162,o),
(395,160,c),
(394,159,o),
(393,159,o),
(393,159,c),
(392,159,o),
(394,197,o),
(395,202,c),
(395,204,o),
(395,206,o),
(395,207,c),
(395,208,o),
(394,208,o),
(392,207,cs)
);
},
{
closed = 1;
nodes = (
(247.432,166.453,o),
(244.972,165.869,o),
(241.362,164.607,c),
(235.39,162.519,o),
(232.095,160.41,o),
(226.599,155.157,c),
(222.51,151.249,o),
(219.715,146.623,o),
(218.178,141.221,c),
(216.99,137.043,o),
(216.695,134.495,o),
(216.869,129.927,c),
(217.119,123.362,o),
(218.804,118.287,o),
(222.321,113.509,c),
(225.593,109.064,o),
(230.41,105.445,o),
(235.596,103.539,c),
(241.221,101.47,o),
(250.508,100.971,o),
(256.486,102.416,c),
(259.238,103.081,o),
(261.51,103.786,o),
(262.854,104.39,c),
(263.277,104.581,o),
(263.688,104.736,o),
(263.766,104.736,c),
(264.083,104.736,o),
(268.296,107.365,o),
(269.897,108.562,c),
(272.267,110.332,o),
(273.548,111.567,o),
(275.804,114.258,c),
(280.591,119.967,o),
(282.776,124.595,o),
(284.162,131.958,c),
(285.334,138.186,o),
(284.393,145.974,o),
(281.821,151.329,c),
(279.887,155.356,o),
(276.724,159.11,o),
(273.481,161.227,c),
(266.166,166.002,o),
(259.395,167.61,o),
(250.302,166.731,cs)
);
},
{
closed = 1;
nodes = (
(86.987,166.01,o),
(86.163,165.636,o),
(85.693,165.438,c),
(76.974,161.772,o),
(71.946,159.242,o),
(71.166,158.127,c),
(70.674,157.425,o),
(70.711,155.768,o),
(71.233,155.105,c),
(71.466,154.81,o),
(72.292,154.333,o),
(73.069,154.045,c),
(74.881,153.374,o),
(75.546,152.692,o),
(75.96,151.079,c),
(76.454,149.158,o),
(76.45,114.185,o),
(75.956,112.485,c),
(75.24,110.018,o),
(72.02,107.675,o),
(68.545,107.093,c),
(66.772,106.797,l),
(66.772,104.973,l),
(66.772,103.149,l),
(68.359,103.189,l),
(81.936,103.528,o),
(88.451,103.55,o),
(94.542,103.277,c),
(102.441,102.924,o),
(102.133,102.849,o),
(102,105.103,c),
(101.929,106.323,l),
(99.976,106.785,l),
(94.977,107.965,o),
(92.8,108.826,o),
(91.349,110.194,c),
(89.808,111.647,o),
(89.782,111.776,o),
(89.538,119.385,c),
(89.268,127.805,o),
(89.475,151.007,o),
(89.829,151.938,c),
(90.254,153.057,o),
(94.32,154.758,o),
(99.365,155.927,c),
(102.113,156.565,o),
(107.706,156.519,o),
(109.997,155.841,c),
(112.538,155.089,o),
(114.184,154.164,o),
(115.88,152.536,c),
(118.368,150.147,o),
(119.78,146.571,o),
(120.392,141.113,c),
(120.726,138.134,o),
(120.706,118.277,o),
(120.366,115.273,c),
(120.076,112.712,o),
(119.419,111.158,o),
(118.125,109.968,c),
(116.728,108.684,o),
(116.107,108.411,o),
(111.084,106.868,c),
(110.135,106.576,o),
(109.956,106.413,o),
(109.768,105.67,c),
(109.649,105.197,o),
(109.629,104.394,o),
(109.725,103.885,c),
(109.898,102.96,l),
(112.261,103.115,l),
(120.115,103.63,o),
(125.85,103.783,o),
(134.69,103.715,c),
(144.653,103.638,l),
(144.727,104.912,l),
(144.809,106.337,o),
(144.482,107.178,o),
(143.846,107.178,c),
(143.612,107.178,o),
(142.358,107.448,o),
(141.058,107.777,c),
(137.146,108.77,o),
(135.2,110.01,o),
(134.25,112.117,c),
(133.67,113.403,l),
(133.521,131.592,l),
(133.381,148.836,o),
(133.347,149.901,o),
(132.863,152.1,c),
(131.876,156.584,o),
(130.741,158.873,o),
(128.323,161.259,c),
(126.524,163.033,o),
(124.873,164.004,o),
(121.826,165.079,c),
(120.332,165.607,o),
(119.875,165.64,o),
(114.014,165.645,c),
(107.788,165.649,l),
(105.103,164.842,l),
(103.625,164.398,o),
(101.491,163.658,o),
(100.359,163.197,c),
(98.254,162.341,o),
(93.245,159.663,o),
(91.353,158.382,c),
(90.772,157.989,o),
(90.26,157.706,o),
(90.214,157.752,c),
(90.168,157.799,o),
(90.226,158.331,o),
(90.343,158.936,c),
(90.673,160.647,o),
(90.63,166.108,o),
(90.283,166.455,c),
(89.851,166.887,o),
(88.634,166.806,o),
(87.524,166.269,cs)
);
},
{
closed = 1;
nodes = (
(565.989,164.738,o),
(559.276,160.967,o),
(556.037,155.884,c),
(554.229,153.045,o),
(553.068,148.755,o),
(553.302,145.774,c),
(553.778,139.708,o),
(555.72,136.136,o),
(560.134,133.206,c),
(562.989,131.311,o),
(564.99,130.462,o),
(574.341,127.183,c),
(581.301,124.741,o),
(583.898,122.626,o),
(584.821,118.644,c),
(585.146,117.247,o),
(585.147,116.879,o),
(584.833,115.532,c),
(583.587,110.193,o),
(579.687,107.662,o),
(573.206,107.987,c),
(568.309,108.233,o),
(563.414,110.352,o),
(560.18,113.626,c),
(558.016,115.817,o),
(556.826,117.615,o),
(556.209,119.629,c),
(555.723,121.216,l),
(554.19,121.29,l),
(553.208,121.337,o),
(552.593,121.26,o),
(552.48,121.077,c),
(552.383,120.92,o),
(552.3,119.019,o),
(552.295,116.853,c),
(552.29,114.687,o),
(552.209,111.313,o),
(552.115,109.354,c),
(552.02,107.396,o),
(552.017,105.563,o),
(552.106,105.281,c),
(552.296,104.682,o),
(552.972,104.44,o),
(558.35,103.043,c),
(562.83,101.879,o),
(567.909,101.078,o),
(570.819,101.076,c),
(575.093,101.072,o),
(581.405,102.673,o),
(585.542,104.808,c),
(586.095,105.094,o),
(587.427,105.954,o),
(588.501,106.719,c),
(591.69,108.991,o),
(593.703,111.379,o),
(595.267,114.746,c),
(596.445,117.282,o),
(596.803,119.194,o),
(596.796,122.925,c),
(596.791,125.867,o),
(596.734,126.255,o),
(596.018,128.244,c),
(594.541,132.341,o),
(592.185,134.826,o),
(587.769,136.943,c),
(585.087,138.229,o),
(584.526,138.436,o),
(577.759,140.638,c),
(567.539,143.963,o),
(564.585,146.536,o),
(565.003,151.748,c),
(565.42,156.948,o),
(570.383,160.443,o),
(577.348,160.443,c),
(579.374,160.443,o),
(580.617,160.125,o),
(582.922,159.017,c),
(585.428,157.811,o),
(586.955,156.219,o),
(588.308,153.402,c),
(589.401,151.123,l),
(590.713,151.123,l),
(591.722,151.123,o),
(592.078,151.223,o),
(592.257,151.559,c),
(592.812,152.596,o),
(593.506,163.389,o),
(593.06,164.034,c),
(592.764,164.462,o),
(588.216,165.421,o),
(584.23,165.896,c),
(580.591,166.33,o),
(576.862,166.326,o),
(573.839,165.884,cs)
);
},
{
closed = 1;
nodes = (
(709.515,164.466,o),
(702.892,164.443,o),
(697.684,164.497,c),
(690.489,164.572,o),
(688.129,164.525,o),
(687.857,164.299,c),
(687.64,164.119,o),
(687.51,163.608,o),
(687.524,162.995,c),
(687.569,161.127,o),
(687.727,160.913,o),
(689.638,160.115,c),
(691.72,159.246,o),
(694.509,156.803,o),
(696.109,154.447,c),
(697.732,152.057,o),
(700.934,145.585,o),
(704.241,138.013,c),
(704.992,136.294,o),
(705.754,134.558,o),
(705.934,134.155,c),
(706.243,133.465,o),
(706.935,131.796,o),
(708.917,126.953,c),
(709.839,124.7,o),
(710.159,123.923,o),
(712.285,118.774,c),
(714.46,113.504,o),
(716.966,106.984,o),
(718.852,101.685,c),
(719.63,99.498,o),
(719.638,99.487,o),
(720.524,99.412,c),
(722.14,99.276,o),
(724.867,99.781,o),
(725.445,100.324,c),
(725.739,100.601,o),
(726.219,101.521,o),
(726.51,102.37,c),
(727.049,103.942,o),
(729.584,109.227,o),
(737.307,124.878,c),
(739.692,129.712,o),
(742.984,136.414,o),
(744.622,139.771,c),
(749.235,149.222,o),
(749.957,150.609,o),
(751.41,152.796,c),
(754.037,156.752,o),
(758.125,160.494,o),
(760.525,161.14,c),
(761.033,161.277,o),
(761.674,161.676,o),
(761.95,162.026,c),
(762.507,162.735,o),
(762.617,164.117,o),
(762.146,164.485,c),
(761.954,164.634,o),
(760.21,164.656,o),
(757.446,164.543,c),
(755.029,164.445,o),
(748.712,164.411,o),
(743.408,164.468,c),
(738.104,164.524,o),
(733.643,164.484,o),
(733.493,164.377,c),
(733.344,164.271,o),
(733.145,163.664,o),
(733.052,163.028,c),
(732.821,161.46,o),
(733.456,160.791,o),
(735.393,160.563,c),
(737.417,160.325,o),
(739.776,159.526,o),
(740.938,158.684,c),
(742.146,157.809,o),
(743.408,155.938,o),
(743.408,155.021,c),
(743.408,153.46,o),
(741.203,147.565,o),
(738.48,141.846,c),
(738.065,140.973,o),
(736.771,138.171,o),
(735.606,135.62,c),
(733.038,130,o),
(727.227,118.17,o),
(727.033,118.167,c),
(726.757,118.162,o),
(724.811,122.367,o),
(721.594,129.922,c),
(720.298,132.965,o),
(719.238,135.516,o),
(719.238,135.591,c),
(719.238,135.666,o),
(718.974,136.308,o),
(718.651,137.017,c),
(717.984,138.481,o),
(716.6,141.827,o),
(715.541,144.531,c),
(715.147,145.538,o),
(714.656,146.725,o),
(714.45,147.169,c),
(713.447,149.331,o),
(711.67,155.246,o),
(711.67,156.423,c),
(711.67,157.597,o),
(712.666,158.378,o),
(716.084,159.883,c),
(718.368,160.888,o),
(719.662,161.337,o),
(720.738,161.499,c),
(722.357,161.741,o),
(722.51,161.902,o),
(722.523,163.375,c),
(722.534,164.673,l),
(720.093,164.686,l),
(718.75,164.694,o),
(715.289,164.632,o),
(712.402,164.549,cs)
);
},
{
closed = 1;
nodes = (
(865.094,164.398,o),
(858.384,164.372,o),
(853.74,164.453,c),
(844.167,164.618,o),
(844.482,164.676,o),
(844.482,162.745,c),
(844.482,161.558,o),
(845.105,160.796,o),
(846.313,160.503,c),
(847.989,160.097,o),
(849.619,159.087,o),
(851.142,157.51,c),
(854.321,154.216,o),
(856.706,149.729,o),
(864.136,133.055,c),
(865.841,129.229,o),
(867.719,125.07,o),
(868.31,123.812,c),
(868.901,122.555,o),
(869.385,121.482,o),
(869.385,121.427,c),
(869.385,121.373,o),
(869.816,120.424,o),
(870.344,119.319,c),
(871.607,116.673,o),
(874.107,110.855,o),
(875.877,106.445,c),
(877.644,102.042,o),
(877.705,101.222,o),
(876.444,98.734,c),
(874.209,94.321,o),
(868.119,85.934,o),
(865.152,83.182,c),
(861.694,79.976,o),
(857.279,77.678,o),
(853.027,76.874,c),
(850.971,76.485,o),
(850.259,75.806,o),
(849.853,73.848,c),
(849.632,72.786,o),
(849.621,72.006,o),
(849.809,70.872,c),
(850.189,68.577,o),
(851.234,67.463,o),
(853.923,66.487,c),
(855.812,65.801,o),
(857.083,65.779,o),
(859.997,66.38,c),
(862.798,66.958,o),
(864.272,67.709,o),
(866.115,69.498,c),
(870.224,73.484,o),
(875.74,82.43,o),
(883.552,97.778,c),
(885.124,100.867,o),
(886.895,104.272,o),
(887.488,105.347,c),
(888.579,107.322,o),
(889.468,109.115,o),
(891.12,112.671,c),
(891.62,113.745,o),
(893.043,116.711,o),
(894.283,119.263,c),
(898.809,128.575,o),
(902.1,135.471,o),
(902.1,135.646,c),
(902.1,135.87,o),
(907.723,147.016,o),
(908.8,148.926,c),
(912.674,155.798,o),
(916.052,159.381,o),
(920.136,160.946,c),
(921.16,161.338,o),
(922.135,161.836,o),
(922.302,162.053,c),
(922.47,162.27,o),
(922.607,162.92,o),
(922.607,163.499,c),
(922.607,164.551,l),
(907.485,164.551,l),
(897.707,164.551,o),
(892.31,164.465,o),
(892.212,164.308,c),
(891.954,163.89,o),
(891.993,161.62,o),
(892.263,161.35,c),
(892.405,161.209,o),
(893.565,160.89,o),
(894.842,160.643,c),
(899.44,159.753,o),
(902.344,157.383,o),
(902.344,154.521,c),
(902.344,153.253,o),
(901.508,150.154,o),
(900.348,147.12,c),
(898.339,141.865,o),
(892.636,129.78,o),
(888.817,122.685,c),
(887.518,120.271,o),
(886.268,117.769,o),
(886.039,117.125,c),
(885.776,116.384,o),
(885.496,115.979,o),
(885.277,116.022,c),
(884.992,116.077,o),
(883.619,118.935,o),
(881.959,122.925,c),
(881.791,123.328,o),
(881.101,124.976,o),
(880.426,126.587,c),
(873.996,141.917,o),
(870.472,151.028,o),
(869.59,154.605,c),
(869.062,156.745,l),
(869.651,157.379,l),
(871,158.831,o),
(874.888,160.874,o),
(877.406,161.454,c),
(878.259,161.651,o),
(879.119,161.973,o),
(879.316,162.17,c),
(879.756,162.61,o),
(879.911,163.791,o),
(879.605,164.368,c),
(879.346,164.854,o),
(879.475,164.852,o),
(868.652,164.51,cs)
);
},
{
closed = 1;
nodes = (
(260.413,156.922,o),
(264.846,152.455,o),
(267.68,145.329,c),
(269.068,141.837,o),
(269.769,138.066,o),
(269.939,133.179,c),
(270.165,126.669,o),
(269.58,122.744,o),
(267.747,118.456,c),
(266.546,115.647,o),
(265.6,114.263,o),
(263.652,112.459,c),
(260.826,109.842,o),
(257.25,108.398,o),
(253.596,108.398,c),
(251.477,108.398,o),
(247.773,109.059,o),
(245.853,109.779,c),
(241.951,111.242,o),
(237.539,115.019,o),
(235.302,118.809,c),
(229.793,128.144,o),
(229.287,142.078,o),
(234.129,151.123,c),
(235.194,153.113,o),
(239.116,157.121,o),
(240.784,157.924,c),
(244.966,159.937,o),
(249.925,160.313,o),
(254.172,158.94,cs)
);
},
{
attr = {
fillColor = (0,255);
};
closed = 1;
nodes = (
(418.446,155.246,o),
(423.517,149.208,o),
(425.436,139.499,c),
(426.037,136.454,o),
(426.036,130.038,o),
(425.433,127.197,c),
(423.834,119.656,o),
(419.96,114.068,o),
(414.434,111.331,c),
(411.407,109.831,o),
(409.278,109.303,o),
(406.25,109.3,c),
(399.92,109.293,o),
(392.78,112.469,o),
(392.207,115.547,c),
(392.127,115.979,o),
(392.095,124.408,o),
(392.136,134.277,c),
(392.197,148.591,o),
(392.277,152.336,o),
(392.534,152.787,c),
(392.978,153.565,o),
(394.754,154.647,o),
(397.026,155.524,c),
(401.674,157.316,o),
(406.375,157.754,o),
(410.889,156.816,cs)
);
}
);
width = 1000;
}
);
unicode = 72;
},
{
glyphname = I;
lastChange = "2023-02-01 15:23:54 +0000";
layers = (
{
layerId = m01;
shapes = (
{
closed = 1;
nodes = (
(145,283,l),
(145,225,o),
(145,130,o),
(138,101,cs),
(138,94,o),
(138,79,o),
(131,72,c),
(124,50,o),
(94,36,o),
(58,28,c),
(43,21,l),
(43,-2,l),
(65,-1,l),
(335,-1,l),
(371,-8,o),
(371,-8,o),
(371,14,cs),
(371,21,o),
(371,21,o),
(349,28,cs),
(313,36,o),
(276,50,o),
(269,72,cs),
(262,94,o),
(255,123,o),
(255,341,cs),
(262,582,o),
(262,603,o),
(276,633,cs),
(284,654,o),
(313,676,o),
(356,676,cs),
(371,676,l),
(378,684,o),
(378,705,o),
(371,705,cs),
(327,705,ls),
(291,705,o),
(51,705,o),
(36,705,c),
(36,691,ls),
(36,676,o),
(36,669,o),
(51,669,cs),
(65,669,o),
(87,662,o),
(102,654,c),
(109,654,o),
(124,640,o),
(131,633,c),
(138,582,l),
(145,574,o),
(145,523,o),
(145,472,c)
);
}
);
width = 412;
}
);
unicode = 73;
},
{
glyphname = M;
lastChange = "2023-02-01 16:18:30 +0000";
layers = (
{
layerId = m01;
shapes = (
{
closed = 1;
nodes = (
(899,711,ls),
(841,711,o),
(798,711,o),
(790,704,c),
(790,704,o),
(790,697,o),
(783,682,c),
(783,668,o),
(768,639,o),
(761,624,c),
(761,617,o),
(754,609,o),
(754,595,c),
(739,573,o),
(739,558,o),
(717,529,c),
(717,522,o),
(710,500,o),
(703,493,c),
(703,486,o),
(688,464,o),
(681,449,cs),
(674,427,o),
(667,420,o),
(667,420,c),
(667,413,o),
(659,391,o),
(645,362,cs),
(630,340,o),
(616,311,o),
(616,304,c),
(608,296,o),
(594,267,o),
(586,245,cs),
(572,216,o),
(557,187,o),
(557,180,c),
(550,173,l),
(543,173,o),
(543,180,o),
(535,180,c),
(535,187,o),
(528,209,o),
(521,224,cs),
(514,231,o),
(506,253,o),
(506,260,c),
(492,282,o),
(485,304,o),
(470,333,cs),
(455,362,l),
(455,362,o),
(448,369,o),
(448,376,c),
(441,384,o),
(434,406,o),
(434,413,c),
(426,427,o),
(419,442,o),
(419,449,c),
(412,457,o),
(404,471,o),
(397,486,c),
(397,500,o),
(390,515,o),
(383,522,c),
(383,529,o),
(375,529,o),
(375,529,c),
(375,529,o),
(353,580,o),
(346,609,cs),
(324,668,ls),
(317,682,o),
(310,697,o),
(310,697,c),
(310,704,l),
(303,711,l),
(77,711,l),
(77,682,l),
(84,682,ls),
(113,682,o),
(142,668,o),
(157,660,cs),
(171,653,o),
(193,631,o),
(201,609,c),
(201,595,o),
(201,558,o),
(193,500,cs),
(186,471,o),
(186,435,o),
(186,420,cs),
(186,406,o),
(179,391,o),
(179,384,cs),
(179,376,o),
(179,355,o),
(171,340,c),
(171,296,o),
(157,202,o),
(150,173,cs),
(135,93,o),
(121,63,o),
(77,42,c),
(48,34,ls),
(33,27,o),
(33,27,o),
(33,12,cs),
(33,-2,l),
(33,-2,o),
(62,-2,o),
(99,5,c),
(230,5,l),
(266,-2,o),
(310,-2,o),
(317,-2,cs),
(332,-2,l),
(332,12,ls),
(332,27,o),
(332,27,o),
(303,34,cs),
(281,34,o),
(266,42,o),
(266,42,c),
(259,42,o),
(252,49,o),
(252,49,c),
(237,56,o),
(222,71,o),
(215,78,c),
(208,100,o),
(208,122,o),
(222,267,cs),
(237,435,ls),
(237,449,o),
(244,471,o),
(244,493,cs),
(244,522,o),
(252,544,o),
(252,551,c),
(252,551,o),
(259,551,o),
(259,537,c),
(266,529,o),
(273,500,o),
(288,471,cs),
(295,457,o),
(303,442,o),
(310,435,c),
(310,427,o),
(317,420,o),
(317,420,c),
(317,413,o),
(324,406,o),
(324,391,c),
(332,384,o),
(339,369,o),
(339,355,c),
(346,347,o),
(353,326,o),
(353,318,c),
(361,311,o),
(361,304,o),
(361,304,c),
(368,296,o),
(368,289,o),
(368,282,c),
(375,275,o),
(375,267,o),
(383,267,c),
(383,253,l),
(383,253,o),
(390,231,o),
(404,216,c),
(419,187,o),
(419,180,o),
(434,136,cs),
(455,93,o),
(455,85,o),
(463,71,cs),
(485,12,ls),
(492,-2,o),
(492,-9,o),
(492,-9,c),
(492,-9,o),
(499,-9,o),
(514,-2,c),
(528,-2,o),
(528,-2,o),
(535,12,c),
(535,20,o),
(543,27,o),
(543,34,cs),
(550,56,o),
(565,78,o),
(565,78,c),
(586,129,ls),
(594,144,o),
(601,158,o),
(601,158,c),
(630,216,ls),
(645,245,o),
(667,304,o),
(667,304,c),
(667,304,o),
(674,318,o),
(681,333,cs),
(739,449,l),
(739,464,o),
(747,464,o),
(754,486,cs),
(754,493,o),
(761,500,o),
(761,508,c),
(783,551,l),
(783,566,o),
(790,566,o),
(790,566,c),
(790,500,ls),
(790,457,o),
(790,391,o),
(790,347,cs),
(798,187,ls),
(805,100,o),
(790,93,o),
(783,71,cs),
(776,56,o),
(754,42,o),
(717,34,c),
(710,27,o),
(696,27,o),
(688,27,cs),
(681,27,l),
(681,-2,l),
(696,-2,ls),
(754,-2,o),
(936,-2,o),
(1001,-2,cs),
(1031,-2,ls),
(1038,-2,o),
(1038,5,o),
(1038,12,cs),
(1038,20,o),
(1038,20,o),
(1031,27,c),
(1031,27,o),
(1023,27,o),
(1023,27,c),
(965,49,l),
(929,71,o),
(921,85,o),
(914,136,cs),
(899,260,o),
(892,558,o),
(899,602,cs),
(907,639,o),
(914,646,o),
(943,660,cs),
(965,675,o),
(980,675,o),
(1001,682,c),
(1016,682,l),
(1016,682,o),
(1016,704,o),
(1016,711,c),
(1001,711,l)
);
}
);
width = 1073;
}
);
unicode = 77;
},
{
glyphname = N;
lastChange = "2023-02-01 15:23:55 +0000";
layers = (
{
layerId = m01;
shapes = (
{
closed = 1;
nodes = (
(38,692,ls),
(38,677,o),
(38,677,o),
(60,670,c),
(82,670,o),
(111,663,o),
(118,648,c),
(147,634,o),
(155,619,o),
(162,597,cs),
(169,546,o),
(169,379,o),
(155,197,cs),
(147,109,o),
(147,80,o),
(125,58,cs),
(111,44,o),
(89,29,o),
(45,22,c),
(45,22,o),
(38,15,o),
(38,0,c),
(45,-7,l),
(89,-7,ls),
(155,-7,o),
(271,0,o),
(315,-7,cs),
(337,-7,o),
(351,-7,o),
(351,-7,c),
(351,7,ls),
(351,22,o),
(358,22,o),
(322,29,cs),
(307,29,o),
(293,37,o),
(286,37,c),
(235,58,o),
(220,80,o),
(220,182,cs),
(213,546,l),
(213,546,o),
(220,546,o),
(242,524,c),
(249,510,o),
(264,495,o),
(271,488,c),
(271,488,o),
(286,473,o),
(293,459,c),
(307,452,o),
(315,437,o),
(322,430,cs),
(329,422,o),
(337,408,o),
(351,401,c),
(358,386,o),
(380,364,o),
(395,342,cs),
(409,328,o),
(424,313,o),
(424,306,c),
(431,306,o),
(431,299,o),
(438,291,cs),
(489,240,ls),
(511,219,o),
(533,197,o),
(540,182,c),
(555,168,o),
(569,146,o),
(584,131,cs),
(620,95,ls),
(628,88,o),
(657,51,o),
(679,37,c),
(679,29,o),
(693,22,o),
(701,15,cs),
(722,-14,l),
(722,-14,o),
(730,-22,o),
(730,-29,c),
(737,-36,o),
(737,-36,o),
(751,-29,c),
(781,-29,l),
(795,-29,l),
(795,-22,l),
(795,189,ls),
(795,393,o),
(795,415,o),
(802,524,cs),
(802,575,o),
(810,604,o),
(824,626,c),
(832,648,o),
(861,670,o),
(897,677,cs),
(904,677,o),
(919,677,o),
(919,677,c),
(919,692,l),
(919,706,l),
(912,706,ls),
(897,706,o),
(613,706,o),
(613,706,c),
(606,706,l),
(599,706,l),
(599,692,l),
(599,677,l),
(613,677,o),
(664,663,o),
(679,655,cs),
(701,641,o),
(715,619,o),
(722,590,cs),
(730,553,o),
(730,444,o),
(737,262,cs),
(737,168,o),
(737,153,o),
(730,153,c),
(730,153,o),
(671,204,o),
(628,255,cs),
(569,328,ls),
(555,342,o),
(533,357,o),
(526,371,cs),
(519,379,o),
(504,393,o),
(497,401,cs),
(460,437,l),
(460,444,o),
(446,452,o),
(446,459,c),
(424,481,ls),
(417,488,o),
(395,517,o),
(373,546,cs),
(242,692,l),
(235,706,l),
(147,706,ls),
(96,706,o),
(53,706,o),
(53,706,c),
(38,706,l)
);
}
);
width = 950;
}
);
unicode = 78;
},
{
glyphname = O;
lastChange = "2023-02-01 16:18:50 +0000";
layers = (
{
layerId = m01;
shapes = (
{
closed = 1;
nodes = (
(354,710,o),
(311,703,o),
(267,681,cs),
(194,652,o),
(136,587,o),
(100,514,cs),
(71,456,o),
(56,405,o),
(56,339,cs),
(49,295,o),
(63,230,o),
(78,193,cs),
(92,157,ls),
(107,113,o),
(143,84,o),
(172,55,cs),
(223,11,o),
(282,-10,o),
(369,-18,c),
(391,-25,o),
(464,-25,o),
(486,-18,c),
(515,-18,o),
(566,-3,o),
(587,4,cs),
(638,26,o),
(675,48,o),
(711,84,cs),
(733,113,o),
(769,157,o),
(784,193,cs),
(813,244,o),
(820,288,o),
(828,354,cs),
(828,375,o),
(828,426,o),
(820,448,cs),
(813,499,o),
(791,557,o),
(748,608,cs),
(711,652,o),
(653,703,o),
(580,710,cs),
(478,725,ls),
(449,732,o),
(420,725,o),
(420,718,c)
);
},
{
closed = 1;
nodes = (
(515,659,o),
(544,645,o),
(566,630,cs),
(587,616,o),
(617,594,o),
(638,565,cs),
(646,557,o),
(660,521,o),
(660,521,c),
(660,521,o),
(668,514,o),
(668,507,c),
(689,456,o),
(704,390,o),
(697,317,cs),
(697,266,o),
(697,237,o),
(682,201,cs),
(668,164,o),
(653,143,o),
(631,113,cs),
(617,92,o),
(595,70,o),
(573,62,c),
(551,48,o),
(536,41,o),
(507,41,c),
(449,26,o),
(384,33,o),
(340,55,cs),
(274,84,o),
(223,143,o),
(202,223,cs),
(187,266,o),
(180,303,o),
(172,346,cs),
(172,397,o),
(187,463,o),
(202,507,cs),
(209,528,o),
(231,572,o),
(245,579,c),
(267,601,ls),
(318,652,o),
(398,681,o),
(486,667,cs)
);
}
);
width = 882;
}
);
unicode = 79;
},
{
glyphname = P;
lastChange = "2023-02-01 15:23:55 +0000";
layers = (
{
layerId = m01;
shapes = (
{
closed = 1;
nodes = (
(253,705,o),
(188,691,o),
(115,698,cs),
(35,705,l),
(35,676,l),
(49,669,l),
(86,662,o),
(100,662,o),
(115,654,c),
(130,640,o),
(144,611,o),
(144,574,c),
(151,552,o),
(151,531,o),
(151,327,cs),
(151,94,o),
(151,87,o),
(144,65,cs),
(137,43,o),
(115,36,o),
(71,21,c),
(57,21,l),
(57,21,o),
(49,14,o),
(57,6,c),
(57,-8,l),
(86,-1,l),
(166,-1,o),
(348,-1,o),
(384,-8,cs),
(392,-8,o),
(392,-8,o),
(392,-1,c),
(392,-1,o),
(399,6,o),
(399,14,cs),
(399,21,o),
(399,21,o),
(392,21,c),
(392,21,o),
(377,21,o),
(363,28,c),
(304,36,o),
(275,57,o),
(268,79,cs),
(261,101,o),
(261,116,o),
(261,341,cs),
(261,574,o),
(261,640,o),
(268,647,cs),
(275,654,o),
(290,654,o),
(326,662,c),
(392,662,o),
(428,654,o),
(472,640,cs),
(486,633,o),
(501,625,o),
(515,603,c),
(537,589,o),
(545,574,o),
(559,545,c),
(566,538,o),
(566,502,o),
(566,487,cs),
(566,472,o),
(566,443,o),
(559,429,c),
(552,392,o),
(523,356,o),
(486,341,c),
(479,334,l),
(457,327,o),
(435,320,o),
(392,312,cs),
(355,312,o),
(333,312,o),
(319,320,c),
(312,320,o),
(304,320,o),
(304,320,c),
(319,298,ls),
(326,290,o),
(333,283,o),
(363,276,cs),
(392,269,o),
(428,261,o),
(464,276,cs),
(523,298,ls),
(545,305,o),
(545,312,o),
(559,320,cs),
(581,334,o),
(603,341,o),
(625,363,cs),
(668,414,o),
(683,451,o),
(690,509,cs),
(690,545,o),
(683,582,o),
(668,611,cs),
(661,625,o),
(625,654,o),
(610,669,c),
(566,691,o),
(515,705,o),
(450,705,cs),
(363,705,ls)
);
}
);
width = 736;
}
);
unicode = 80;
},
{
glyphname = S;
lastChange = "2023-02-01 16:18:06 +0000";
layers = (
{
layerId = m01;
shapes = (
{
closed = 1;
nodes = (
(243,709,o),
(192,694,o),
(141,665,cs),
(112,643,o),
(90,607,o),
(76,571,cs),
(68,549,o),
(68,520,o),
(68,505,cs),
(76,454,o),
(76,440,o),
(97,411,cs),
(119,381,o),
(134,374,o),
(170,352,cs),
(185,345,o),
(221,330,o),
(228,330,cs),
(236,330,l),
(243,323,o),
(258,316,o),
(265,316,cs),
(279,316,o),
(330,294,o),
(338,294,c),
(338,287,o),
(345,287,o),
(352,287,c),
(418,258,o),
(440,236,o),
(454,199,cs),
(461,185,o),
(461,156,o),
(454,141,c),
(447,105,o),
(410,76,o),
(374,61,cs),
(338,47,o),
(294,47,o),
(250,54,cs),
(228,54,o),
(199,68,o),
(185,76,cs),
(148,97,o),
(119,134,o),
(97,178,c),
(97,192,o),
(90,199,o),
(90,199,c),
(83,199,o),
(68,199,o),
(68,192,cs),
(68,25,l),
(68,25,o),
(76,25,o),
(76,17,c),
(156,3,ls),
(185,-4,o),
(228,-4,o),
(272,-12,cs),
(316,-12,o),
(367,-4,o),
(410,10,c),
(418,10,o),
(425,10,o),
(425,17,c),
(425,17,o),
(432,17,o),
(440,25,c),
(469,32,o),
(505,61,o),
(527,90,cs),
(541,112,o),
(549,127,o),
(556,156,cs),
(563,185,o),
(563,199,o),
(563,214,cs),
(556,279,o),
(527,330,o),
(469,360,c),
(440,381,o),
(418,389,o),
(316,425,cs),
(243,447,o),
(221,454,o),
(199,483,c),
(170,505,o),
(163,534,o),
(170,571,cs),
(170,600,o),
(199,629,o),
(221,643,cs),
(243,658,o),
(265,665,o),
(301,665,cs),
(323,665,o),
(330,665,o),
(352,658,cs),
(389,651,o),
(403,643,o),
(418,629,cs),
(447,607,o),
(476,563,o),
(476,527,c),
(483,520,l),
(491,520,l),
(505,520,l),
(512,520,l),
(512,607,ls),
(512,658,o),
(512,694,o),
(505,694,c),
(505,702,o),
(491,702,o),
(461,709,c),
(330,716,l)
);
}
);
width = 613;
}
);
unicode = 83;
},
{
glyphname = V;
lastChange = "2023-02-01 16:18:26 +0000";
layers = (
{
layerId = m01;
shapes = (
{
closed = 1;
nodes = (
(573,678,l),
(573,678,o),
(588,671,o),
(595,671,cs),
(624,663,o),
(639,663,o),
(646,656,c),
(675,641,o),
(675,612,o),
(653,554,c),
(646,547,o),
(639,525,o),
(631,510,cs),
(610,459,ls),
(602,445,o),
(588,423,o),
(588,416,c),
(566,372,l),
(566,365,o),
(551,350,o),
(551,336,c),
(544,321,o),
(537,314,o),
(537,314,c),
(522,285,l),
(522,277,o),
(508,256,o),
(500,241,c),
(500,227,o),
(493,212,o),
(486,205,c),
(464,161,l),
(464,161,o),
(457,139,o),
(449,139,c),
(449,139,o),
(428,176,o),
(428,183,c),
(428,183,o),
(428,190,o),
(420,205,cs),
(413,219,o),
(384,285,o),
(362,350,c),
(355,358,o),
(355,372,o),
(347,372,c),
(347,379,l),
(347,379,o),
(340,394,o),
(340,409,c),
(333,416,o),
(326,438,o),
(318,452,c),
(318,459,o),
(311,474,o),
(304,481,c),
(289,532,ls),
(275,576,o),
(260,612,o),
(253,620,c),
(253,627,o),
(253,634,o),
(260,634,c),
(267,656,o),
(289,678,o),
(326,678,cs),
(347,678,l),
(347,685,o),
(355,685,o),
(355,692,cs),
(355,707,l),
(34,700,l),
(34,692,l),
(27,678,o),
(34,678,o),
(34,671,c),
(49,671,ls),
(56,671,o),
(64,663,o),
(71,663,c),
(107,641,o),
(136,612,o),
(180,503,cs),
(195,467,l),
(202,459,o),
(202,459,o),
(202,452,c),
(209,438,o),
(238,372,o),
(246,343,cs),
(253,321,o),
(260,307,o),
(260,307,c),
(275,285,l),
(275,270,o),
(282,256,o),
(282,248,c),
(296,227,o),
(326,154,o),
(326,146,c),
(340,110,l),
(340,103,o),
(369,30,o),
(377,15,cs),
(384,1,o),
(384,-14,o),
(391,-21,c),
(391,-28,l),
(398,-28,ls),
(420,-28,o),
(442,-21,o),
(442,-21,c),
(442,-21,o),
(449,-14,o),
(449,-6,c),
(457,1,o),
(457,8,o),
(457,8,c),
(457,8,o),
(464,23,o),
(471,37,cs),
(486,74,ls),
(500,110,o),
(529,168,o),
(537,183,c),
(537,190,o),
(544,212,o),
(551,219,c),
(573,263,o),
(573,270,o),
(588,307,cs),
(595,321,o),
(602,336,o),
(610,343,c),
(610,350,o),
(617,358,o),
(617,365,c),
(704,540,ls),
(711,554,o),
(719,561,o),
(719,569,cs),
(719,576,o),
(733,591,o),
(741,605,cs),
(762,641,o),
(792,663,o),
(828,678,c),
(842,678,l),
(842,692,ls),
(842,700,o),
(842,700,o),
(842,707,c),
(792,707,ls),
(741,707,o),
(639,707,o),
(602,707,cs),
(573,707,l)
);
}
);
width = 873;
}
);
unicode = 86;
},
{
glyphname = Y;
lastChange = "2023-02-01 16:18:14 +0000";
layers = (
{
layerId = m01;
shapes = (
{
closed = 1;
nodes = (
(483,696,o),
(475,688,o),
(475,681,cs),
(475,667,l),
(497,667,ls),
(519,667,o),
(526,667,o),
(548,659,c),
(556,652,o),
(570,637,o),
(570,630,cs),
(570,623,o),
(563,601,o),
(556,587,cs),
(548,572,o),
(512,506,o),
(490,477,cs),
(454,419,l),
(439,405,o),
(432,390,o),
(432,390,c),
(417,405,l),
(410,426,o),
(388,448,o),
(344,528,cs),
(301,594,o),
(279,623,o),
(279,630,cs),
(279,645,o),
(301,659,o),
(323,667,cs),
(330,667,o),
(337,674,o),
(344,674,c),
(344,674,o),
(352,674,o),
(352,674,c),
(352,688,l),
(352,696,l),
(199,696,l),
(39,696,ls),
(31,696,o),
(31,696,o),
(31,681,cs),
(31,674,o),
(31,667,o),
(53,667,cs),
(68,667,o),
(90,652,o),
(104,645,cs),
(133,623,o),
(192,557,o),
(257,463,cs),
(344,332,ls),
(352,317,o),
(344,128,o),
(337,91,cs),
(337,70,o),
(323,55,o),
(301,41,cs),
(286,33,o),
(257,26,o),
(250,26,c),
(250,26,o),
(250,26,o),
(242,26,c),
(242,4,l),
(242,-3,l),
(264,-3,ls),
(279,-3,o),
(293,4,o),
(308,4,cs),
(519,4,l),
(534,-3,o),
(556,-3,o),
(563,-3,cs),
(570,-3,l),
(570,11,l),
(577,19,o),
(577,26,o),
(570,26,cs),
(556,26,l),
(534,33,o),
(505,41,o),
(490,55,c),
(475,62,o),
(468,70,o),
(461,84,c),
(461,230,l),
(461,332,l),
(461,339,l),
(475,354,o),
(505,397,o),
(541,455,cs),
(548,463,o),
(556,477,o),
(556,485,c),
(563,492,o),
(577,506,o),
(585,521,cs),
(606,550,ls),
(643,601,o),
(665,623,o),
(687,637,cs),
(701,652,o),
(730,667,o),
(745,667,c),
(752,674,o),
(759,674,o),
(767,674,c),
(767,674,o),
(767,674,o),
(767,688,cs),
(767,696,ls),
(767,703,o),
(483,703,o),
(483,696,c)
);
}
);
width = 798;
}
);
unicode = 89;
},
{
glyphname = a;
lastChange = "2023-02-01 16:02:41 +0000";
layers = (
{
layerId = m01;
shapes = (
{
closed = 1;
nodes = (
(206,468,o),
(177,461,o),
(148,454,c),
(112,432,ls),
(104,425,o),
(104,417,o),
(104,396,cs),
(104,374,o),
(112,374,o),
(119,381,cs),
(155,403,o),
(170,403,o),
(199,410,cs),
(250,417,o),
(286,388,o),
(301,352,c),
(308,345,o),
(308,308,o),
(308,286,cs),
(308,272,l),
(301,272,ls),
(279,272,o),
(235,272,o),
(221,264,c),
(199,264,o),
(155,257,o),
(148,250,c),
(148,250,o),
(141,243,o),
(134,243,c),
(104,228,o),
(90,221,o),
(75,199,cs),
(53,177,o),
(46,155,o),
(46,119,c),
(61,61,l),
(75,39,o),
(97,10,o),
(119,2,c),
(170,-27,o),
(243,-12,o),
(301,24,c),
(308,24,o),
(308,32,o),
(308,32,c),
(316,32,o),
(316,24,o),
(323,2,cs),
(330,-19,o),
(337,-19,o),
(345,-19,cs),
(403,-5,o),
(410,-5,o),
(454,2,cs),
(490,10,o),
(490,10,o),
(490,24,cs),
(490,32,l),
(490,39,l),
(468,39,ls),
(439,39,o),
(425,46,o),
(417,68,c),
(403,82,o),
(403,75,o),
(403,235,cs),
(403,374,l),
(396,381,l),
(388,410,o),
(381,432,o),
(359,446,cs),
(345,461,o),
(316,468,o),
(279,468,cs),
(235,468,ls)
);
},
{
closed = 1;
nodes = (
(301,221,o),
(308,221,o),
(308,221,c),
(308,148,l),
(308,82,l),
(301,75,l),
(301,68,o),
(279,61,o),
(265,53,c),
(206,53,l),
(170,68,o),
(148,90,o),
(141,119,cs),
(134,148,o),
(134,170,o),
(155,192,cs),
(170,206,o),
(199,221,o),
(228,221,c),
(243,228,o),
(294,228,o),
(301,221,c)
);
}
);
width = 523;
}
);
unicode = 97;
},
{
glyphname = b;
lastChange = "2023-02-01 16:02:54 +0000";
layers = (
{
layerId = m01;
shapes = (
{
closed = 1;
nodes = (
(95,719,ls),
(73,712,o),
(66,705,o),
(59,705,c),
(59,675,l),
(66,675,o),
(66,675,o),
(73,668,cs),
(88,661,o),
(88,661,o),
(88,654,c),
(88,654,o),
(95,610,o),
(95,341,cs),
(95,-2,ls),
(95,-9,o),
(117,-9,o),
(124,-2,cs),
(139,6,o),
(139,6,o),
(168,-2,cs),
(212,-16,o),
(226,-16,o),
(270,-16,cs),
(314,-16,o),
(321,-16,o),
(365,-2,cs),
(401,13,o),
(452,49,o),
(488,93,cs),
(532,144,o),
(547,195,o),
(547,260,cs),
(547,326,o),
(532,362,o),
(503,399,cs),
(459,450,o),
(401,472,o),
(336,464,cs),
(306,457,o),
(270,450,o),
(241,435,cs),
(197,406,l),
(197,406,o),
(190,399,o),
(190,399,c),
(190,501,ls),
(190,595,o),
(197,683,o),
(204,719,c),
(212,734,o),
(212,748,o),
(204,756,c),
(204,763,o),
(204,763,o),
(197,763,c),
(197,763,o),
(183,756,o),
(168,756,c)
);
},
{
closed = 1;
nodes = (
(379,384,o),
(408,348,o),
(430,304,cs),
(445,268,o),
(445,231,o),
(445,188,cs),
(437,122,o),
(401,71,o),
(357,49,cs),
(306,28,o),
(255,28,o),
(219,57,cs),
(204,64,o),
(197,78,o),
(190,86,cs),
(183,93,l),
(183,224,ls),
(183,326,o),
(183,355,o),
(190,355,c),
(197,370,o),
(241,392,o),
(270,399,cs),
(292,399,o),
(328,399,o),
(343,392,c)
);
}
);
width = 590;
}
);
unicode = 98;
},
{
glyphname = d;
lastChange = "2023-02-01 15:47:24 +0000";
layers = (
{
layerId = m01;
shapes = (
{
closed = 1;
nodes = (
(463,748,o),
(449,748,o),
(449,741,c),
(434,741,l),
(412,734,o),
(361,705,o),
(354,705,c),
(347,697,o),
(347,690,o),
(347,683,cs),
(347,675,o),
(354,668,o),
(361,668,cs),
(383,661,o),
(383,646,o),
(383,523,cs),
(383,442,o),
(390,450,o),
(376,450,c),
(369,457,o),
(361,457,o),
(318,457,cs),
(281,457,o),
(274,457,o),
(252,450,cs),
(216,442,o),
(187,435,o),
(157,406,c),
(114,377,o),
(77,333,o),
(63,290,cs),
(48,260,o),
(41,239,o),
(41,202,cs),
(41,137,o),
(63,86,o),
(99,49,cs),
(121,28,o),
(128,20,o),
(157,6,cs),
(187,-9,o),
(238,-16,o),
(267,-9,cs),
(289,-9,o),
(332,6,o),
(369,28,cs),
(383,35,o),
(390,35,o),
(390,35,c),
(390,13,ls),
(390,-2,o),
(390,-9,o),
(398,-16,c),
(405,-16,ls),
(412,-16,o),
(427,-16,o),
(441,-9,cs),
(514,13,l),
(529,13,o),
(536,20,o),
(543,28,c),
(543,35,o),
(536,35,o),
(521,42,cs),
(492,49,o),
(478,64,o),
(478,115,cs),
(478,617,l),
(485,632,o),
(485,661,o),
(485,668,cs),
(485,697,o),
(485,697,o),
(492,712,cs),
(500,726,o),
(500,734,o),
(500,741,cs),
(500,748,o),
(492,756,o),
(492,756,c),
(471,756,l)
);
},
{
closed = 1;
nodes = (
(339,399,o),
(347,392,o),
(354,392,c),
(361,384,o),
(376,377,o),
(376,362,c),
(383,355,o),
(383,355,o),
(383,326,cs),
(383,311,o),
(390,253,o),
(390,195,cs),
(390,86,l),
(383,78,ls),
(369,64,o),
(325,57,o),
(289,64,cs),
(208,78,o),
(157,122,o),
(143,195,cs),
(136,224,o),
(128,239,o),
(136,260,c),
(136,304,o),
(143,326,o),
(172,355,cs),
(187,377,o),
(208,392,o),
(238,399,cs),
(252,406,o),
(259,406,o),
(281,406,cs),
(303,406,o),
(310,406,o),
(325,399,c)
);
}
);
width = 577;
}
);
unicode = 100;
},
{
glyphname = e;
lastChange = "2023-02-01 16:01:59 +0000";
layers = (
{
layerId = m01;
shapes = (
{
closed = 1;
nodes = (
(226,454,o),
(175,432,o),
(124,381,cs),
(95,352,o),
(73,308,o),
(59,265,c),
(59,214,ls),
(59,155,o),
(66,112,o),
(95,68,cs),
(131,17,o),
(197,-12,o),
(270,-12,cs),
(306,-12,l),
(328,-5,o),
(364,10,o),
(386,17,c),
(437,53,l),
(437,61,o),
(437,75,o),
(430,90,c),
(430,104,o),
(423,104,o),
(415,97,cs),
(401,83,o),
(379,75,o),
(343,68,c),
(270,68,l),
(219,83,o),
(182,112,o),
(161,155,cs),
(146,177,o),
(139,214,o),
(139,235,cs),
(139,243,l),
(219,243,ls),
(335,243,o),
(372,250,o),
(386,257,cs),
(401,265,o),
(423,272,o),
(430,286,c),
(445,301,o),
(445,308,o),
(445,337,cs),
(445,396,o),
(408,439,o),
(343,454,c),
(328,461,o),
(299,461,o),
(284,461,cs)
);
},
{
closed = 1;
nodes = (
(299,403,o),
(306,403,o),
(313,396,cs),
(328,388,o),
(350,366,o),
(357,345,c),
(357,330,o),
(364,301,o),
(357,301,c),
(357,301,o),
(343,294,o),
(313,294,cs),
(284,286,o),
(146,286,o),
(139,294,c),
(139,308,l),
(146,330,o),
(153,337,o),
(161,352,cs),
(182,381,o),
(212,403,o),
(241,410,cs),
(255,410,o),
(277,410,o),
(292,403,c)
);
}
);
width = 502;
}
);
unicode = 101;
},
{
glyphname = f;
lastChange = "2023-02-01 15:23:55 +0000";
layers = (
{
layerId = m01;
shapes = (
{
closed = 1;
nodes = (
(247,713,o),
(210,684,o),
(167,633,cs),
(145,596,o),
(130,567,o),
(123,516,cs),
(116,480,o),
(108,473,o),
(108,465,c),
(101,451,o),
(72,422,o),
(50,414,cs),
(43,414,o),
(43,407,o),
(43,400,cs),
(43,393,o),
(43,393,o),
(57,393,cs),
(87,385,o),
(94,385,o),
(101,378,c),
(108,378,l),
(101,225,ls),
(94,65,o),
(101,65,o),
(94,50,cs),
(87,43,o),
(65,29,o),
(43,29,cs),
(36,29,o),
(28,21,o),
(36,7,c),
(36,-1,l),
(43,-1,l),
(261,-1,ls),
(283,-1,o),
(290,-1,o),
(298,-1,c),
(298,14,ls),
(298,29,o),
(298,29,o),
(276,29,c),
(254,36,o),
(232,43,o),
(218,43,c),
(210,50,o),
(203,58,o),
(203,72,c),
(196,80,o),
(196,94,o),
(196,160,cs),
(196,320,l),
(196,385,l),
(298,385,l),
(312,400,ls),
(327,414,o),
(327,422,o),
(334,429,c),
(334,444,o),
(341,444,o),
(261,444,cs),
(196,444,l),
(196,487,ls),
(196,582,o),
(210,626,o),
(239,655,cs),
(247,662,o),
(254,662,o),
(269,662,cs),
(283,662,o),
(283,669,o),
(312,647,cs),
(349,626,o),
(378,633,o),
(392,669,c),
(392,684,o),
(392,698,o),
(378,713,cs),
(363,727,o),
(327,727,o),
(290,727,c)
);
}
);
width = 422;
}
);
unicode = 102;
},
{
glyphname = g;
lastChange = "2023-02-01 16:03:17 +0000";
layers = (
{
layerId = m01;
shapes = (
{
closed = 1;
nodes = (
(374,438,o),
(367,438,o),
(367,438,c),
(367,438,o),
(352,446,o),
(345,446,cs),
(316,453,o),
(294,453,o),
(265,453,cs),
(229,446,o),
(207,438,o),
(185,431,cs),
(134,409,o),
(97,373,o),
(76,336,cs),
(61,314,o),
(61,293,o),
(61,264,cs),
(61,191,o),
(97,140,o),
(178,111,c),
(185,111,o),
(192,103,o),
(192,103,c),
(192,103,o),
(185,103,o),
(185,96,c),
(148,67,o),
(127,45,o),
(119,31,cs),
(112,23,o),
(112,1,o),
(112,-6,cs),
(119,-28,o),
(148,-50,o),
(185,-50,c),
(192,-57,o),
(199,-57,o),
(199,-57,c),
(178,-71,ls),
(134,-100,o),
(97,-122,o),
(76,-151,c),
(61,-159,o),
(61,-166,o),
(54,-173,cs),
(47,-188,o),
(47,-188,o),
(47,-210,cs),
(47,-239,o),
(54,-246,o),
(61,-261,cs),
(76,-282,o),
(90,-290,o),
(112,-304,c),
(134,-312,o),
(156,-319,o),
(185,-319,cs),
(221,-326,o),
(236,-326,o),
(265,-326,cs),
(309,-319,o),
(338,-312,o),
(367,-297,cs),
(389,-290,o),
(418,-268,o),
(425,-261,cs),
(461,-232,o),
(491,-195,o),
(505,-166,cs),
(512,-151,o),
(520,-130,o),
(520,-108,cs),
(520,-64,o),
(498,-28,o),
(461,-6,cs),
(440,9,o),
(411,9,o),
(374,16,c),
(309,16,o),
(250,23,o),
(221,31,cs),
(207,31,o),
(199,52,o),
(199,67,cs),
(199,74,o),
(207,74,o),
(214,74,c),
(214,82,o),
(229,82,o),
(229,89,c),
(236,96,o),
(243,96,o),
(265,103,c),
(294,103,o),
(309,111,o),
(323,118,c),
(323,118,o),
(330,118,o),
(338,125,c),
(345,125,o),
(360,132,o),
(374,140,cs),
(389,147,o),
(418,176,o),
(432,198,cs),
(454,242,o),
(469,285,o),
(461,336,c),
(454,351,o),
(454,373,o),
(447,373,c),
(447,380,o),
(447,380,o),
(469,380,cs),
(505,380,o),
(527,380,o),
(527,387,c),
(534,387,o),
(534,424,o),
(527,438,c),
(476,446,l),
(403,446,l)
);
},
{
closed = 1;
nodes = (
(301,402,o),
(323,387,o),
(330,380,cs),
(345,365,o),
(360,344,o),
(367,322,c),
(367,307,o),
(367,300,o),
(367,278,cs),
(367,234,l),
(352,176,o),
(323,154,o),
(279,147,cs),
(258,147,o),
(236,147,o),
(214,162,cs),
(170,183,o),
(141,264,o),
(156,329,cs),
(163,351,o),
(170,358,o),
(185,373,cs),
(199,387,o),
(221,402,o),
(243,402,c),
(265,409,o),
(265,409,o),
(279,402,c)
);
},
{
closed = 1;
nodes = (
(374,-79,o),
(396,-86,o),
(411,-100,cs),
(425,-122,o),
(432,-151,o),
(425,-181,cs),
(418,-217,o),
(374,-253,o),
(323,-268,c),
(221,-268,l),
(207,-261,o),
(193,-260,o),
(178,-246,cs),
(170,-239,l),
(148,-232,o),
(134,-195,o),
(141,-166,c),
(148,-159,o),
(163,-137,o),
(185,-115,cs),
(214,-86,l),
(225,-79,o),
(228,-76,o),
(235,-68,c),
(242,-61,o),
(250,-64,o),
(265,-64,cs),
(272,-64,o),
(287,-71,o),
(309,-71,cs)
);
}
);
width = 573;
}
);
unicode = 103;
},
{
glyphname = h;
lastChange = "2023-02-01 16:03:29 +0000";
layers = (
{
layerId = m01;
shapes = (
{
closed = 1;
nodes = (
(159,721,o),
(144,721,o),
(137,714,c),
(130,714,ls),
(122,714,o),
(115,707,o),
(108,699,c),
(101,699,o),
(86,692,o),
(79,692,c),
(64,670,l),
(64,663,o),
(71,663,o),
(86,648,c),
(101,641,o),
(101,663,o),
(101,357,cs),
(101,73,l),
(93,51,o),
(71,37,o),
(42,30,cs),
(35,30,o),
(28,30,o),
(28,22,cs),
(28,15,o),
(28,0,o),
(28,0,c),
(71,0,ls),
(101,0,o),
(130,0,o),
(181,0,cs),
(268,0,l),
(283,0,l),
(283,15,ls),
(283,22,o),
(283,30,o),
(268,30,cs),
(246,30,o),
(224,44,o),
(210,51,c),
(195,66,o),
(195,66,o),
(195,226,cs),
(195,357,l),
(202,364,o),
(232,379,o),
(253,379,cs),
(283,386,o),
(326,386,o),
(348,379,cs),
(384,372,o),
(406,343,o),
(414,306,c),
(421,292,o),
(421,263,o),
(421,175,cs),
(421,95,o),
(421,81,o),
(414,66,cs),
(406,44,o),
(384,44,o),
(355,30,cs),
(341,22,l),
(341,15,l),
(341,8,l),
(348,0,o),
(348,0,o),
(348,0,c),
(414,0,ls),
(457,0,o),
(494,8,o),
(537,0,cs),
(566,0,o),
(596,0,o),
(596,0,c),
(596,15,l),
(596,30,l),
(588,30,ls),
(545,30,o),
(523,51,o),
(516,73,c),
(516,255,ls),
(516,292,o),
(508,328,o),
(508,335,cs),
(508,386,o),
(494,415,o),
(465,430,cs),
(450,437,o),
(443,445,o),
(421,452,cs),
(363,466,o),
(275,445,o),
(210,401,cs),
(202,394,o),
(195,394,o),
(195,394,c),
(195,394,o),
(195,394,o),
(195,401,cs),
(195,481,ls),
(195,546,o),
(202,648,o),
(202,677,c),
(202,677,o),
(210,692,o),
(210,692,c),
(210,728,ls),
(210,736,o),
(202,736,o),
(202,736,c),
(195,736,o),
(181,736,o),
(173,728,cs)
);
}
);
width = 623;
}
);
unicode = 104;
},
{
glyphname = i;
lastChange = "2023-02-01 15:50:34 +0000";
layers = (
{
layerId = m01;
shapes = (
{
closed = 1;
nodes = (
(124,648,o),
(117,641,o),
(110,627,c),
(110,619,o),
(102,619,o),
(102,605,cs),
(102,590,o),
(110,590,o),
(110,576,c),
(117,561,o),
(132,554,o),
(153,554,cs),
(175,554,o),
(183,561,o),
(190,568,cs),
(204,583,o),
(204,590,o),
(204,605,cs),
(204,619,o),
(197,634,o),
(183,648,cs),
(175,656,o),
(153,663,o),
(139,656,cs)
);
},
{
closed = 1;
nodes = (
(124,430,ls),
(103,422,o),
(66,408,o),
(66,401,c),
(59,394,o),
(59,386,o),
(66,379,c),
(73,379,ls),
(95,379,o),
(102,357,o),
(102,343,c),
(110,328,o),
(110,95,o),
(102,81,cs),
(95,51,o),
(81,37,o),
(37,30,c),
(30,22,o),
(30,22,o),
(30,8,cs),
(30,0,l),
(73,0,ls),
(95,0,o),
(139,0,o),
(168,0,cs),
(255,0,l),
(277,0,l),
(284,15,l),
(284,30,o),
(284,30,o),
(270,30,cs),
(233,37,o),
(219,44,o),
(204,59,cs),
(197,66,l),
(197,219,ls),
(197,372,o),
(197,394,o),
(204,415,cs),
(212,430,o),
(213,461,o),
(205,461,c),
(197,459,l)
);
}
);
width = 311;
}
);
unicode = 105;
},
{
glyphname = m;
lastChange = "2023-02-01 15:46:23 +0000";
layers = (
{
layerId = m01;
shapes = (
{
closed = 1;
nodes = (
(180,459,o),
(144,445,o),
(129,437,cs),
(93,423,o),
(71,408,o),
(64,401,cs),
(56,394,o),
(64,386,o),
(71,379,c),
(86,379,o),
(93,372,o),
(100,364,cs),
(107,357,o),
(107,350,o),
(107,219,cs),
(107,95,o),
(107,73,o),
(100,66,c),
(100,59,o),
(93,51,o),
(93,51,c),
(78,37,o),
(56,30,o),
(49,30,cs),
(35,30,o),
(35,22,o),
(35,15,cs),
(35,8,o),
(35,0,o),
(35,0,c),
(64,0,ls),
(78,0,o),
(129,0,o),
(180,0,cs),
(275,0,l),
(282,8,o),
(282,8,o),
(282,15,cs),
(282,22,o),
(282,30,o),
(260,30,c),
(246,37,o),
(231,37,o),
(224,44,cs),
(217,51,o),
(209,51,o),
(209,59,c),
(202,73,o),
(195,88,o),
(202,226,cs),
(202,357,o),
(202,343,o),
(217,350,cs),
(246,372,o),
(282,386,o),
(318,386,cs),
(348,386,o),
(369,379,o),
(384,364,cs),
(399,350,o),
(406,335,o),
(413,299,c),
(413,190,ls),
(413,73,o),
(413,66,o),
(391,51,cs),
(384,44,o),
(369,37,o),
(348,30,cs),
(333,22,o),
(333,22,o),
(333,15,cs),
(333,0,o),
(333,0,o),
(340,0,c),
(340,0,o),
(355,0,o),
(369,0,cs),
(428,0,l),
(450,8,o),
(493,0,o),
(530,0,cs),
(559,0,o),
(588,0,o),
(588,0,c),
(588,15,l),
(588,22,l),
(581,22,l),
(573,30,o),
(566,30,o),
(551,37,cs),
(522,44,o),
(508,51,o),
(508,73,cs),
(508,212,l),
(508,350,l),
(515,350,l),
(515,357,o),
(522,364,o),
(537,364,c),
(581,386,o),
(646,394,o),
(682,372,c),
(712,343,l),
(726,313,o),
(726,284,o),
(726,204,cs),
(726,124,o),
(726,81,o),
(719,66,c),
(719,59,o),
(704,44,o),
(690,37,cs),
(682,30,o),
(661,22,o),
(653,22,cs),
(646,22,o),
(646,22,o),
(646,15,cs),
(646,0,l),
(668,0,l),
(879,0,ls),
(894,0,o),
(894,0,o),
(894,15,c),
(901,22,o),
(894,30,o),
(886,30,cs),
(857,37,o),
(843,44,o),
(828,51,cs),
(821,59,o),
(814,51,o),
(814,204,cs),
(814,364,l),
(799,423,o),
(770,445,o),
(704,452,cs),
(668,459,o),
(632,452,o),
(581,430,cs),
(551,415,o),
(537,408,o),
(522,394,c),
(508,386,o),
(508,386,o),
(500,401,cs),
(486,430,o),
(457,445,o),
(420,452,cs),
(391,459,o),
(355,459,o),
(326,445,c),
(289,437,o),
(268,423,o),
(224,394,c),
(217,394,o),
(209,386,o),
(202,386,c),
(202,386,o),
(202,401,o),
(202,423,c),
(209,452,o),
(209,452,o),
(202,459,c),
(187,459,ls)
);
}
);
width = 927;
}
);
unicode = 109;
},
{
glyphname = n;
lastChange = "2023-02-01 15:46:31 +0000";
layers = (
{
layerId = m01;
shapes = (
{
closed = 1;
nodes = (
(177,450,l),
(112,428,o),
(75,406,o),
(68,399,c),
(68,377,l),
(68,377,o),
(75,370,o),
(82,370,c),
(97,362,o),
(104,362,o),
(104,348,cs),
(104,64,l),
(97,49,o),
(75,35,o),
(53,27,c),
(39,27,l),
(39,-2,l),
(46,-2,ls),
(148,-2,o),
(192,6,o),
(243,-2,cs),
(294,-2,o),
(294,-2,o),
(294,13,cs),
(294,20,l),
(279,27,l),
(243,35,o),
(228,42,o),
(213,49,c),
(206,64,o),
(206,64,o),
(206,115,cs),
(199,180,o),
(199,348,o),
(206,355,c),
(206,362,o),
(235,377,o),
(272,384,cs),
(294,391,o),
(337,391,o),
(352,384,cs),
(374,377,o),
(381,370,o),
(395,362,c),
(410,341,o),
(425,319,o),
(425,275,c),
(432,253,o),
(432,108,o),
(425,86,c),
(425,71,o),
(417,57,o),
(410,49,cs),
(403,42,o),
(395,35,o),
(359,27,cs),
(352,27,o),
(352,20,o),
(352,20,c),
(352,6,l),
(352,-2,l),
(366,-2,ls),
(425,-2,o),
(468,6,o),
(534,6,cs),
(607,6,l),
(607,13,ls),
(607,20,o),
(599,27,o),
(599,27,c),
(599,27,o),
(585,27,o),
(577,35,c),
(548,42,o),
(534,49,o),
(526,64,c),
(526,71,l),
(526,209,l),
(519,355,l),
(512,391,o),
(505,406,o),
(483,421,c),
(476,435,o),
(461,442,o),
(439,450,cs),
(425,457,o),
(425,457,o),
(381,457,cs),
(337,457,l),
(315,450,l),
(308,442,o),
(286,442,o),
(279,435,cs),
(264,428,o),
(228,413,o),
(213,399,c),
(213,399,o),
(206,399,o),
(206,399,c),
(206,406,l),
(213,421,o),
(213,457,o),
(206,457,c),
(206,464,o),
(199,464,o),
(192,457,c)
);
}
);
width = 636;
}
);
unicode = 110;
},
{
glyphname = o;
lastChange = "2023-02-01 16:01:48 +0000";
layers = (
{
layerId = m01;
shapes = (
{
closed = 1;
nodes = (
(274,454,o),
(260,454,o),
(230,447,cs),
(187,432,o),
(165,410,o),
(129,374,cs),
(99,345,o),
(78,316,o),
(63,272,cs),
(56,243,o),
(56,221,o),
(56,192,cs),
(56,141,o),
(70,105,o),
(92,75,cs),
(121,39,o),
(150,10,o),
(194,3,c),
(230,-19,o),
(303,-19,o),
(340,-12,cs),
(391,3,l),
(391,10,o),
(398,10,o),
(398,10,c),
(398,10,o),
(427,24,o),
(442,39,c),
(456,46,o),
(471,61,o),
(485,75,cs),
(522,119,o),
(536,156,o),
(543,206,cs),
(551,250,o),
(543,308,o),
(529,345,cs),
(514,374,o),
(493,403,o),
(463,418,cs),
(412,454,o),
(361,469,o),
(296,461,c)
);
},
{
closed = 1;
nodes = (
(369,388,o),
(405,352,o),
(427,301,cs),
(434,279,o),
(442,250,o),
(442,214,cs),
(442,170,o),
(442,141,o),
(427,105,cs),
(420,90,o),
(412,75,o),
(398,61,cs),
(376,46,o),
(347,32,o),
(325,32,cs),
(303,32,o),
(281,39,o),
(267,46,cs),
(238,54,o),
(209,83,o),
(187,112,cs),
(150,177,o),
(143,279,o),
(179,345,cs),
(187,359,o),
(216,388,o),
(230,396,cs),
(260,410,o),
(296,410,o),
(325,403,cs)
);
}
);
width = 603;
}
);
unicode = 111;
},
{
glyphname = p;
lastChange = "2023-02-01 16:01:16 +0000";
layers = (
{
background = {
shapes = (
{
closed = 1;
nodes = (
(176,458,o),
(169,458,o),
(169,451,c),
(104,429,o),
(67,407,o),
(60,400,c),
(60,378,l),
(60,378,o),
(67,371,o),
(74,371,c),
(89,363,o),
(96,363,o),
(96,349,cs),
(96,65,l),
(89,50,o),
(67,36,o),
(45,28,c),
(31,28,l),
(31,-1,l),
(38,-1,ls),
(140,-1,o),
(184,7,o),
(235,-1,cs),
(286,-1,o),
(286,-1,o),
(286,14,cs),
(286,21,l),
(271,28,l),
(235,36,o),
(220,43,o),
(205,50,c),
(198,65,o),
(198,65,o),
(198,116,cs),
(191,181,o),
(191,349,o),
(198,356,c),
(198,363,o),
(227,378,o),
(264,385,cs),
(286,392,o),
(329,392,o),
(344,385,cs),
(366,378,o),
(373,371,o),
(387,363,c),
(402,342,o),
(417,320,o),
(417,276,c),
(424,254,o),
(424,109,o),
(417,87,c),
(417,72,o),
(409,58,o),
(402,50,cs),
(395,43,o),
(387,36,o),
(351,28,cs),
(344,28,o),
(344,21,o),
(344,21,c),
(344,7,l),
(344,-1,l),
(358,-1,ls),
(417,-1,o),
(460,7,o),
(526,7,cs),
(599,7,l),
(599,14,ls),
(599,21,o),
(591,28,o),
(591,28,c),
(591,28,o),
(577,28,o),
(569,36,c),
(540,43,o),
(526,50,o),
(518,65,c),
(518,72,l),
(518,210,l),
(511,356,l),
(504,392,o),
(497,407,o),
(475,422,c),
(468,436,o),
(453,443,o),
(431,451,cs),
(417,458,o),
(417,458,o),
(373,458,cs),
(329,458,l),
(307,451,l),
(300,443,o),
(278,443,o),
(271,436,cs),
(256,429,o),
(220,414,o),
(205,400,c),
(205,400,o),
(198,400,o),
(198,400,c),
(198,407,l),
(205,422,o),
(205,458,o),
(198,458,c),
(198,465,o),
(191,465,o),
(184,458,c)
);
}
);
};
layerId = m01;
shapes = (
{
closed = 1;
nodes = (
(159,445,o),
(163,445,o),
(149,438,cs),
(123,426,l),
(94,419,o),
(65,395,o),
(65,395,c),
(58,387,o),
(62,380,o),
(62,372,c),
(71,365,l),
(86,365,o),
(91,358,o),
(98,343,c),
(102,-173,l),
(95,-195,o),
(95,-202,o),
(80,-209,c),
(73,-224,o),
(66,-231,o),
(44,-231,cs),
(37,-231,o),
(37,-239,o),
(37,-239,c),
(29,-239,o),
(29,-260,o),
(37,-260,cs),
(66,-260,ls),
(95,-260,o),
(182,-253,o),
(255,-260,cs),
(270,-260,o),
(291,-260,o),
(291,-260,c),
(291,-246,ls),
(291,-231,o),
(291,-231,o),
(277,-231,c),
(262,-224,o),
(240,-217,o),
(226,-217,c),
(204,-202,o),
(204,-195,o),
(197,-173,c),
(197,-6,ls),
(197,2,o),
(204,2,o),
(233,-6,cs),
(255,-13,o),
(262,-13,o),
(277,-13,cs),
(313,-13,o),
(342,-6,o),
(364,9,cs),
(401,23,o),
(444,45,o),
(466,74,c),
(510,111,o),
(532,162,o),
(546,213,c),
(546,242,o),
(546,300,o),
(539,322,cs),
(532,358,o),
(517,387,o),
(495,409,cs),
(473,431,o),
(452,446,o),
(415,453,c),
(401,460,o),
(401,460,o),
(371,460,cs),
(342,460,o),
(320,453,o),
(291,446,cs),
(262,431,o),
(240,424,o),
(219,409,cs),
(211,402,o),
(201,397,o),
(201,397,c),
(203,445,l),
(203,452,ls),
(203,460,o),
(195,460,o),
(181,452,cs)
);
},
{
attr = {
fillColor = (0,255);
};
closed = 1;
nodes = (
(386,373,o),
(430,329,o),
(437,256,c),
(444,235,o),
(444,191,o),
(437,169,cs),
(430,118,o),
(401,74,o),
(357,53,cs),
(335,45,o),
(320,38,o),
(299,38,cs),
(255,38,o),
(204,60,o),
(197,89,c),
(197,220,ls),
(197,329,o),
(197,351,o),
(204,358,c),
(204,366,o),
(219,373,o),
(233,380,c),
(270,387,o),
(299,395,o),
(335,387,cs)
);
}
);
width = 591;
}
);
unicode = 112;
},
{
glyphname = s;
lastChange = "2023-02-01 16:01:32 +0000";
layers = (
{
layerId = m01;
shapes = (
{
closed = 1;
nodes = (
(168,458,o),
(117,422,o),
(96,385,cs),
(81,363,o),
(74,334,o),
(74,312,cs),
(81,269,o),
(96,240,o),
(125,218,cs),
(147,203,o),
(161,196,o),
(227,174,cs),
(278,160,o),
(307,145,o),
(307,116,cs),
(307,94,ls),
(307,50,o),
(270,36,o),
(219,36,cs),
(183,36,o),
(147,50,o),
(125,79,cs),
(110,94,o),
(103,109,o),
(96,123,c),
(96,130,l),
(81,130,ls),
(74,130,o),
(74,130,o),
(67,130,c),
(67,101,ls),
(67,87,o),
(67,58,o),
(67,43,cs),
(67,14,l),
(67,14,o),
(74,7,o),
(110,-1,cs),
(147,-8,o),
(183,-15,o),
(205,-15,cs),
(234,-15,o),
(285,-8,o),
(314,14,cs),
(336,28,ls),
(358,43,o),
(372,58,o),
(380,87,cs),
(387,101,o),
(394,116,o),
(394,145,cs),
(394,167,o),
(394,167,o),
(387,181,cs),
(380,210,o),
(358,232,o),
(329,247,cs),
(256,276,ls),
(183,305,o),
(161,320,o),
(161,356,cs),
(161,392,o),
(198,414,o),
(249,414,cs),
(263,414,o),
(278,414,o),
(292,407,cs),
(307,400,o),
(321,385,o),
(329,363,cs),
(336,349,l),
(350,349,ls),
(358,349,o),
(358,349,o),
(358,356,c),
(365,363,o),
(372,436,o),
(365,443,c),
(365,443,o),
(329,451,o),
(299,458,c),
(227,458,ls)
);
}
);
width = 450;
}
);
unicode = 115;
},
{
glyphname = v;
lastChange = "2023-02-01 16:02:07 +0000";
layers = (
{
layerId = m01;
shapes = (
{
closed = 1;
nodes = (
(190,442,o),
(139,442,o),
(102,442,cs),
(44,450,o),
(30,450,o),
(30,442,cs),
(30,435,ls),
(30,421,o),
(30,421,o),
(44,413,cs),
(59,406,o),
(81,391,o),
(88,370,c),
(102,355,o),
(124,311,o),
(146,253,cs),
(153,239,o),
(161,231,o),
(161,224,cs),
(161,217,o),
(168,209,o),
(182,173,cs),
(190,159,o),
(190,151,o),
(204,115,cs),
(255,-9,ls),
(263,-31,o),
(263,-31,o),
(270,-31,cs),
(299,-23,l),
(306,-16,o),
(306,-9,o),
(314,-9,c),
(314,6,o),
(335,42,o),
(386,159,cs),
(408,195,o),
(430,239,o),
(445,268,cs),
(488,362,l),
(510,391,o),
(539,413,o),
(561,421,c),
(568,428,ls),
(576,435,o),
(576,442,o),
(568,442,c),
(568,450,o),
(554,450,o),
(532,450,c),
(517,442,o),
(474,442,o),
(430,442,cs),
(394,450,o),
(364,442,o),
(357,442,c),
(357,435,ls),
(357,421,o),
(357,421,o),
(372,421,c),
(386,413,o),
(408,413,o),
(415,406,cs),
(423,399,o),
(430,384,o),
(430,377,cs),
(430,362,o),
(415,326,o),
(394,282,c),
(394,275,o),
(386,253,o),
(379,239,cs),
(314,108,l),
(314,108,o),
(299,137,o),
(277,195,c),
(263,217,o),
(255,239,o),
(255,239,c),
(255,246,l),
(248,253,o),
(241,282,o),
(233,304,c),
(226,311,o),
(226,319,o),
(219,319,c),
(212,333,o),
(204,377,o),
(204,384,cs),
(204,399,o),
(212,399,o),
(233,413,cs),
(248,421,o),
(263,421,o),
(270,421,c),
(277,428,o),
(284,428,o),
(284,435,cs),
(284,450,l),
(263,450,l),
(204,450,l)
);
}
);
width = 602;
}
);
unicode = 118;
},
{
glyphname = y;
lastChange = "2023-02-01 16:03:49 +0000";
layers = (
{
layerId = m01;
shapes = (
{
closed = 1;
nodes = (
(182,441,o),
(131,441,o),
(102,441,cs),
(29,449,o),
(29,449,o),
(29,434,cs),
(29,427,o),
(37,420,o),
(44,420,c),
(58,412,o),
(73,405,o),
(80,398,cs),
(102,369,o),
(124,340,o),
(175,216,cs),
(189,187,o),
(204,158,o),
(204,150,c),
(211,143,o),
(211,128,o),
(211,128,c),
(211,128,o),
(219,121,o),
(219,114,c),
(233,99,o),
(248,56,o),
(262,19,cs),
(277,-10,o),
(277,-17,o),
(262,-32,c),
(248,-68,o),
(204,-126,o),
(182,-148,cs),
(160,-170,o),
(124,-185,o),
(95,-192,cs),
(80,-199,o),
(73,-199,o),
(73,-214,cs),
(73,-236,ls),
(73,-250,o),
(80,-265,o),
(102,-272,c),
(146,-272,l),
(168,-265,o),
(175,-257,o),
(189,-250,c),
(219,-221,o),
(262,-156,o),
(320,-39,cs),
(328,-17,o),
(342,5,o),
(342,12,c),
(357,26,o),
(357,41,o),
(371,70,c),
(379,77,o),
(386,99,o),
(393,114,cs),
(430,187,o),
(452,230,o),
(452,238,c),
(502,332,ls),
(532,383,o),
(553,405,o),
(583,420,c),
(590,420,o),
(597,427,o),
(597,427,c),
(604,434,l),
(604,449,l),
(488,449,ls),
(422,449,o),
(379,441,o),
(379,441,c),
(379,441,o),
(379,427,o),
(379,420,c),
(401,420,ls),
(430,420,o),
(452,390,o),
(452,376,cs),
(452,361,o),
(452,340,o),
(437,318,cs),
(422,281,o),
(386,194,o),
(357,143,c),
(350,121,o),
(335,107,o),
(335,99,cs),
(335,92,o),
(328,92,o),
(328,92,c),
(328,92,o),
(320,114,o),
(306,143,cs),
(291,172,ls),
(240,274,o),
(219,347,o),
(219,376,c),
(219,390,l),
(226,405,o),
(255,420,o),
(270,420,c),
(277,427,o),
(284,427,o),
(284,427,c),
(291,434,o),
(291,441,o),
(291,441,c),
(284,449,o),
(284,449,o),
(211,449,c)
);
}
);
width = 629;
}
);
unicode = 121;
},
